<svg width="194" height="194" viewBox="0 0 194 194" fill="none" xmlns="http://www.w3.org/2000/svg">
<path d="M4.07646 129.726C22.0357 133.033 40.1223 135.12 58.2461 136.103C55.7762 134.947 53.2985 133.816 50.8347 132.63C33.8014 124.431 15.9913 116.306 2.39099 100.368C-0.349264 97.1559 3.15683 91.6505 6.31961 93.9203C29.1535 110.313 53.6759 122.575 79.1118 130.462C62.5538 110.47 49.2347 85.85 36.5276 61.9872C34.4989 58.1773 39.3254 53.3327 41.6198 57.0129C52.3944 74.3042 64.0001 90.671 75.991 106.589C67.0805 87.3882 59.5712 67.0246 52.2297 46.8812C50.5116 42.1704 55.7575 38.0418 57.8283 42.7369C70.1252 70.628 83.7597 97.5592 98.654 123.334C87.7101 86.2317 79.3542 47.9709 73.8721 8.93121C73.1451 3.74835 78.7204 1.72049 80.1247 6.74796C87.752 34.0745 94.7207 61.6863 101.034 89.5381C98.6555 62.9176 96.2772 36.2972 93.8974 9.67676C93.4282 4.41913 99.8843 4.50568 100.381 9.67676C102.685 33.6517 105.317 57.5754 108.239 81.4421C107.931 55.6871 108.731 29.9124 110.723 4.2558C111.123 -0.897552 117.21 -1.13162 117.207 4.2558C117.183 37.2668 117.16 70.2778 117.137 103.289C121.129 76.5838 128.429 50.5712 135.717 25.066C137.117 20.1683 143.22 22.1353 141.97 27.2473C134.442 58.0081 127.678 89.0581 121.615 120.33C121.446 122.142 121.292 123.953 121.162 125.773C133.117 98.047 145.072 70.3231 157.027 42.5973C159.031 37.9494 164.568 42.0721 162.626 46.7416C153.617 68.4034 144.608 90.0632 135.599 111.723C147.398 95.728 160.03 80.7321 173.504 66.94C176.725 63.669 181.34 69.4183 178.089 72.7444C165.301 85.7359 153.532 100.291 143.042 116.251C141.477 118.631 139.954 121.052 138.451 123.491C153.349 114.142 168.577 105.645 184.104 98.0726C187.04 96.6406 189.784 102.443 187.257 104.933C171.87 120.098 154.714 131.998 136.53 140.334C135.203 141.201 133.878 142.071 132.544 142.921C151.284 140.8 170.023 138.678 188.764 136.556C192.363 136.148 193.242 143.888 189.626 144.618C180.908 146.378 172.172 148.133 163.417 149.738C172.983 152.246 182.437 155.47 191.701 159.451C195.708 161.172 194.056 168.229 189.977 167.367C169.953 163.133 149.787 160.056 129.538 158.186C126.647 157.918 123.72 157.621 120.789 157.372C125.143 175.519 130.117 193.408 135.744 210.963C144.062 233.098 152.379 255.234 160.698 277.37C162.466 282.077 157.141 286.204 155.099 281.514C145.592 259.666 137.137 237.105 129.73 214.003C123.332 196.976 116.933 179.948 110.535 162.92C91.7707 180.556 72.1804 196.722 52.5792 212.821C49.0405 215.728 45.9337 208.728 49.3062 205.732C65.0673 191.738 80.8299 177.745 96.591 163.75C77.139 170.428 57.6885 177.106 38.2364 183.783C34.1897 185.174 32.5508 177.468 36.5121 175.867C46.5007 171.832 56.4706 167.7 66.4545 163.621C50.0394 165.694 33.6258 167.767 17.2107 169.84C13.5959 170.296 12.7679 162.651 16.3486 161.776C34.5594 157.328 52.7719 152.881 70.9827 148.434C47.9671 146.498 25.0447 142.909 2.34749 137.639C-1.80017 136.68 0.0344323 128.983 4.07646 129.726Z" fill="#0F413F"/>
</svg>
