<svg width="415" height="428" viewBox="0 0 415 428" fill="none" xmlns="http://www.w3.org/2000/svg">
<g style="mix-blend-mode:overlay" opacity="0.14">
<path d="M71.6026 427.34C58.0511 429.033 58.898 420.571 58.0511 412.955C60.592 398.57 58.0511 385.03 58.0511 378.261C58.0511 372.845 48.4521 348.926 43.6526 337.644C25.8663 313.104 41.9587 286.026 43.6526 280.102C45.0077 275.364 70.7556 256.127 83.4601 247.101C76.6844 247.101 43.3703 258.947 27.5602 264.871C17.3966 267.579 14.291 256.973 14.0087 251.332C15.7026 165.02 75.4385 158.287 79.2253 156.558C84.307 154.238 99.2702 149.506 106.328 148.096L47.0406 152.327C32.1339 153.004 23.89 163.327 21.6314 168.405C10.1126 174.497 2.71579 165.866 0.457203 160.789C-2.08379 138.16 36.0297 103.466 47.0405 98.3888C59.1993 92.7822 121.574 82.0927 134.278 82.0927C144.442 82.0927 142.466 78.7079 140.207 77.0155C130.721 60.7686 86.5657 60.6557 65.6739 62.6302C40.6036 62.6302 42.8057 50.7834 47.0406 44.8601C78.3784 -11.835 216.434 -1.68063 240.149 8.47372C259.121 16.5972 270.64 36.1161 274.028 44.8601C288.257 36.0597 322.87 44.0139 338.398 49.0911C383.795 57.8915 400.226 100.145 402.767 120.171C416.082 149.272 414.679 193.894 413.823 221.128L413.778 222.561C413.434 233.562 394.298 298.719 384.134 311.411C376.003 321.566 368.324 310.001 365.501 302.95C360.758 286.703 345.456 261.768 338.398 251.332C322.813 233.731 311.012 232.151 307.06 233.562C348.392 281.625 339.306 318.965 331.622 337.644C309.601 391.172 273.181 393.492 266.405 393.492C260.985 393.492 261.921 368.953 262.17 368.953C262.42 368.953 262.25 364.94 262.17 364.722C259.46 357.275 250.878 343.567 246.925 337.644C238.117 323.427 230.268 322.13 227.445 323.258C239.641 341.536 232.527 377.697 227.445 393.492C224.057 412.955 211.352 417.186 207.118 423.109C203.73 427.848 176.909 425.084 163.922 423.109C150.371 419.724 153.759 408.16 157.146 402.801C165.955 391.292 168.157 378.825 168.157 374.03C163.922 351.183 157.146 363.876 152.065 364.722C147.999 365.399 142.466 390.39 140.207 402.801C134.109 423.109 83.1779 427.622 71.6026 427.34Z" fill="#DBE7DC"/>
<path d="M163.926 285.18C161.893 289.241 148.398 302.668 141.905 308.873C128.353 308.873 170.137 251.896 192.723 223.407H188.488C179.679 230.854 127.224 226.51 102.097 223.407C86.5128 221.377 95.6036 214.663 102.097 211.561C114.971 196.668 172.395 205.355 199.498 211.561C205.427 207.33 220.673 164.174 224.06 159.097C226.771 155.035 229.707 143.865 230.836 138.788C220.673 142.85 188.205 142.173 173.242 141.327C149.527 141.327 136.258 133.429 132.588 129.48C143.51 107.655 219.445 126.633 230.58 129.416L230.836 129.48C241 132.018 243.541 122.71 238.459 119.325C233.377 115.941 185.947 60.938 177.477 56.7071C170.701 53.3223 169.008 50.7837 169.008 49.9375C171.04 43.8449 187.359 47.3989 195.264 49.9375C204.58 51.6299 205.427 55.0146 224.06 72.7848C238.967 87.0008 243.258 102.966 243.541 109.171C243.541 105.786 261.327 53.3223 267.256 45.7065C271.999 39.6139 273.185 43.1679 273.185 45.7065C270.644 83.7853 260.48 110.864 259.633 116.787C258.956 121.526 260.48 122.146 261.327 121.864C278.944 117.125 298.594 120.454 306.216 122.71C315.533 124.403 335.013 147.25 335.013 151.481C335.013 155.712 340.942 167.559 335.013 167.559C330.27 167.559 317.227 156.84 311.298 151.481C306.555 148.096 294.641 143.301 289.277 141.327C281.146 142.003 263.868 133.711 256.245 129.48C250.147 166.712 227.731 207.612 217.285 223.407C257.939 250.486 263.868 275.025 268.95 285.18C273.015 293.303 267.256 293.077 263.868 291.949L241.847 275.025C229.65 266.902 217.002 241.742 212.203 230.177L181.712 267.41C191.029 285.18 191.029 317.335 176.63 313.95C162.232 310.566 166.467 280.103 163.926 285.18Z" fill="#F0F3F1"/>
</g>
</svg>
