<svg width="1440" height="678" viewBox="0 0 1440 678" fill="none" xmlns="http://www.w3.org/2000/svg">
<g opacity="0.1">
<path d="M-191.194 -275.576L-183.941 -235.957C-131.429 50.8935 209.531 176.274 435.369 -8.21986L467.825 -34.7342C680.097 -208.146 1000.55 -88.9727 1047.93 181.002L1064.5 275.417C1098.78 470.754 1314.72 574.731 1488.81 479.725V479.725" stroke="#0E3A39" stroke-width="0.653416"/>
<path d="M-200.53 -250.524L-193.277 -210.904C-140.765 75.9463 200.195 201.327 426.033 16.8329L458.489 -9.68146C670.762 -183.094 991.214 -63.92 1038.59 206.055L1055.16 300.469C1089.45 495.807 1305.38 599.784 1479.47 504.778V504.778" stroke="#0E3A39" stroke-width="0.653416"/>
<path d="M-209.858 -225.471L-202.605 -185.852C-150.094 100.999 190.867 226.38 416.705 41.8856L449.161 15.3713C661.433 -158.041 981.886 -38.8672 1029.27 231.108L1045.84 325.522C1080.12 520.859 1296.06 624.837 1470.14 529.83V529.83" stroke="#0E3A39" stroke-width="0.653416"/>
<path d="M-219.194 -200.419L-211.941 -160.799C-159.429 126.052 181.531 251.432 407.369 66.9381L439.825 40.4238C652.097 -132.988 972.55 -13.8147 1019.93 256.16L1036.5 350.575C1070.78 545.912 1286.72 649.889 1460.81 554.883V554.883" stroke="#0E3A39" stroke-width="0.653416"/>
<path d="M-228.522 -175.366L-221.269 -135.747C-168.758 151.104 172.203 276.484 398.041 91.9903L430.497 65.476C642.769 -107.936 963.222 11.2375 1010.6 281.212L1027.17 375.627C1061.45 570.964 1277.39 674.941 1451.48 579.935V579.935" stroke="#0E3A39" stroke-width="0.653416"/>
<path d="M-237.858 -150.313L-230.605 -110.693C-178.094 176.157 162.867 301.538 388.705 117.044L421.161 90.5297C633.433 -82.8824 953.886 36.2912 1001.27 306.266L1017.84 400.681C1052.12 596.018 1268.06 699.995 1442.14 604.989V604.989" stroke="#0E3A39" stroke-width="0.653416"/>
<path d="M-247.186 -125.261L-239.933 -85.6411C-187.422 201.209 153.539 326.59 379.377 142.096L411.833 115.582C624.105 -57.8304 944.558 61.3432 991.938 331.318L1008.51 425.733C1042.79 621.07 1258.73 725.047 1432.81 630.041V630.041" stroke="#0E3A39" stroke-width="0.653416"/>
<path d="M-256.514 -100.208L-249.261 -60.5889C-196.75 226.262 144.211 351.642 370.049 167.148L402.505 140.634C614.777 -32.7782 935.229 86.3955 982.61 356.37L999.18 450.785C1033.46 646.122 1249.4 750.099 1423.49 655.093V655.093" stroke="#0E3A39" stroke-width="0.653416"/>
<path d="M-265.85 -75.1554L-258.597 -35.5356C-206.086 251.315 134.875 376.695 360.713 192.201L393.169 165.687C605.441 -7.72524 925.893 111.448 973.274 381.423L989.844 475.838C1024.13 671.175 1240.06 775.152 1414.15 680.146V680.146" stroke="#0E3A39" stroke-width="0.653416"/>
<path d="M-275.178 -50.1031L-267.925 -10.4837C-215.414 276.367 125.547 401.748 351.385 217.254L383.841 190.739C596.113 17.3271 916.565 136.501 963.946 406.476L980.516 500.89C1014.8 696.227 1230.74 800.205 1404.82 705.198V705.198" stroke="#0E3A39" stroke-width="0.653416"/>
<path d="M-284.514 -25.0504L-277.261 14.5691C-224.75 301.42 116.211 426.8 342.049 242.306L374.505 215.792C586.777 42.3798 907.229 161.553 954.61 431.528L971.18 525.943C1005.46 721.28 1221.4 825.257 1395.49 730.251V730.251" stroke="#0E3A39" stroke-width="0.653416"/>
<path d="M-293.842 0.00212236L-286.589 39.6216C-234.078 326.472 106.883 451.853 332.721 267.359L365.177 240.844C577.449 67.4323 897.901 186.606 945.282 456.581L961.852 550.995C996.133 746.333 1212.07 850.31 1386.16 755.304V755.304" stroke="#0E3A39" stroke-width="0.653416"/>
<path d="M-303.178 25.0541L-295.925 64.6736C-243.414 351.524 97.5469 476.905 323.385 292.411L355.841 265.896C568.113 92.4843 888.565 211.658 935.946 481.633L952.516 576.047C986.797 771.385 1202.74 875.362 1376.82 780.356V780.356" stroke="#0E3A39" stroke-width="0.653416"/>
<path d="M-312.506 50.1073L-305.254 89.7268C-252.742 376.577 88.2188 501.958 314.057 317.464L346.513 290.95C558.785 117.538 879.237 236.711 926.618 506.686L943.187 601.1C977.469 796.438 1193.41 900.415 1367.49 805.409V805.409" stroke="#0E3A39" stroke-width="0.653416"/>
<path d="M-321.842 75.1601L-314.589 114.78C-262.078 401.63 78.8829 527.011 304.721 342.517L337.177 316.002C549.449 142.59 869.901 261.764 917.282 531.739L933.852 626.153C968.133 821.491 1184.07 925.468 1358.16 830.461V830.461" stroke="#0E3A39" stroke-width="0.653416"/>
<path d="M-330.952 99.6198L-323.699 139.24C-271.187 426.09 69.7735 551.47 295.611 366.976L328.067 340.462C540.34 167.05 860.792 286.224 908.172 556.198L924.742 650.613C959.024 845.95 1174.96 949.928 1349.05 854.921V854.921" stroke="#0E3A39" stroke-width="0.653416"/>
<path d="M-340.061 124.079L-332.808 163.699C-280.297 450.549 60.6641 575.93 286.502 391.436L318.958 364.922C531.23 191.509 851.683 310.683 899.063 580.658L915.633 675.072C949.914 870.41 1165.85 974.387 1339.94 879.381V879.381" stroke="#0E3A39" stroke-width="0.653416"/>
<path d="M-349.17 148.539L-341.918 188.158C-289.406 475.009 51.5547 600.389 277.392 415.895L309.848 389.381C522.121 215.969 842.573 335.143 889.954 605.117L906.523 699.532C940.805 894.869 1156.74 998.846 1330.83 903.84V903.84" stroke="#0E3A39" stroke-width="0.653416"/>
<path d="M-358.288 172.998L-351.035 212.618C-298.523 499.468 42.4375 624.849 268.275 440.355L300.731 413.841C513.004 240.429 833.456 359.602 880.836 629.577L897.406 723.992C931.688 919.329 1147.63 1023.31 1321.71 928.3V928.3" stroke="#0E3A39" stroke-width="0.653416"/>
<path d="M-367.397 197.458L-360.144 237.077C-307.633 523.928 33.3282 649.309 259.166 464.815L291.622 438.3C503.894 264.888 824.347 384.062 871.727 654.037L888.297 748.451C922.578 943.788 1138.52 1047.77 1312.6 952.759V952.759" stroke="#0E3A39" stroke-width="0.653416"/>
<path d="M-376.506 221.917L-369.254 261.537C-316.742 548.387 24.2188 673.768 250.057 489.274L282.513 462.76C494.785 289.348 815.237 408.521 862.618 678.496L879.187 772.911C913.469 968.248 1129.41 1072.23 1303.49 977.219V977.219" stroke="#0E3A39" stroke-width="0.653416"/>
<path d="M-385.616 246.377L-378.363 285.997C-325.851 572.847 15.1094 698.228 240.947 513.734L273.403 487.219C485.676 313.807 806.128 432.981 853.508 702.956L870.078 797.37C904.36 992.708 1120.3 1096.68 1294.38 1001.68V1001.68" stroke="#0E3A39" stroke-width="0.653416"/>
<path d="M-394.725 270.837L-387.472 310.456C-334.961 597.307 6.00004 722.687 231.838 538.193L264.294 511.679C476.566 338.267 797.018 457.44 844.399 727.415L860.969 821.83C895.25 1017.17 1111.19 1121.14 1285.27 1026.14V1026.14" stroke="#0E3A39" stroke-width="0.653416"/>
<path d="M-403.842 295.296L-396.589 334.916C-344.078 621.766 -3.11715 747.147 222.721 562.653L255.177 536.139C467.449 362.726 787.901 481.9 835.282 751.875L851.852 846.289C886.133 1041.63 1102.07 1145.6 1276.16 1050.6V1050.6" stroke="#0E3A39" stroke-width="0.653416"/>
<path d="M-412.952 319.756L-405.699 359.375C-353.187 646.226 -12.2265 771.606 213.611 587.112L246.067 560.598C458.34 387.186 778.792 506.36 826.172 776.334L842.742 870.749C877.024 1066.09 1092.96 1170.06 1267.05 1075.06V1075.06" stroke="#0E3A39" stroke-width="0.653416"/>
<path d="M-422.061 344.216L-414.808 383.835C-362.297 670.686 -21.3359 796.067 204.502 611.573L236.958 585.058C449.23 411.646 769.683 530.82 817.063 800.795L833.633 895.209C867.914 1090.55 1083.85 1194.52 1257.94 1099.52V1099.52" stroke="#0E3A39" stroke-width="0.653416"/>
<path d="M-431.17 368.675L-423.918 408.294C-371.406 695.145 -30.4453 820.526 195.392 636.032L227.848 609.517C440.121 436.105 760.573 555.279 807.954 825.254L824.523 919.668C858.805 1115.01 1074.74 1218.98 1248.83 1123.98V1123.98" stroke="#0E3A39" stroke-width="0.653416"/>
<path d="M-440.28 393.134L-433.027 432.754C-380.515 719.604 -39.5546 844.985 186.283 660.491L218.739 633.977C431.012 460.565 751.464 579.738 798.844 849.713L815.414 944.128C849.696 1139.46 1065.63 1243.44 1239.72 1148.44V1148.44" stroke="#0E3A39" stroke-width="0.653416"/>
<path d="M-449.397 417.594L-442.144 457.214C-389.633 744.064 -48.6718 869.445 177.166 684.951L209.622 658.436C421.894 485.024 742.347 604.198 789.727 874.173L806.297 968.587C840.578 1163.92 1056.52 1267.9 1230.6 1172.9V1172.9" stroke="#0E3A39" stroke-width="0.653416"/>
</g>
</svg>
