<svg width="290" height="545" viewBox="0 0 290 545" fill="none" xmlns="http://www.w3.org/2000/svg">
<mask id="mask0_20_12200" style="mask-type:alpha" maskUnits="userSpaceOnUse" x="0" y="0" width="290" height="545">
<path d="M0 37.5L124.5 0L290 19L188.5 137H155.5V251L215.5 300.5L205 385.5L188.5 398V545L0 530.5L58 423V356.5L89 236.5L33 155.5L0 37.5Z" fill="#D9D9D9"/>
</mask>
<g mask="url(#mask0_20_12200)">
<rect width="2" height="2" transform="matrix(-1 0 0 1 291 280)" fill="#0E3A39"/>
<rect x="-1" y="14" width="2" height="2" fill="#0E3A39"/>
<rect width="2" height="2" transform="matrix(-1 0 0 1 291 299)" fill="#0E3A39"/>
<rect x="-1" y="33" width="2" height="2" fill="#0E3A39"/>
<rect width="2" height="2" transform="matrix(-1 0 0 1 291 318)" fill="#0E3A39"/>
<rect x="-1" y="52" width="2" height="2" fill="#0E3A39"/>
<rect width="2" height="2" transform="matrix(-1 0 0 1 291 337)" fill="#0E3A39"/>
<rect x="-1" y="71" width="2" height="2" fill="#0E3A39"/>
<rect width="2" height="2" transform="matrix(-1 0 0 1 291 356)" fill="#0E3A39"/>
<rect x="-1" y="90" width="2" height="2" fill="#0E3A39"/>
<rect width="2" height="2" transform="matrix(-1 0 0 1 291 375)" fill="#0E3A39"/>
<rect x="-1" y="109" width="2" height="2" fill="#0E3A39"/>
<rect width="2" height="2" transform="matrix(-1 0 0 1 291 394)" fill="#0E3A39"/>
<rect x="-1" y="128" width="2" height="2" fill="#0E3A39"/>
<rect width="2" height="2" transform="matrix(-1 0 0 1 291 413)" fill="#0E3A39"/>
<rect x="-1" y="147" width="2" height="2" fill="#0E3A39"/>
<rect width="2" height="2" transform="matrix(-1 0 0 1 291 432)" fill="#0E3A39"/>
<rect x="-1" y="166" width="2" height="2" fill="#0E3A39"/>
<rect width="2" height="2" transform="matrix(-1 0 0 1 291 451)" fill="#0E3A39"/>
<rect x="-1" y="185" width="2" height="2" fill="#0E3A39"/>
<rect width="2" height="2" transform="matrix(-1 0 0 1 291 470)" fill="#0E3A39"/>
<rect x="-1" y="204" width="2" height="2" fill="#0E3A39"/>
<rect width="2" height="2" transform="matrix(-1 0 0 1 291 489)" fill="#0E3A39"/>
<rect x="-1" y="223" width="2" height="2" fill="#0E3A39"/>
<rect width="2" height="2" transform="matrix(-1 0 0 1 291 508)" fill="#0E3A39"/>
<rect x="-1" y="242" width="2" height="2" fill="#0E3A39"/>
<rect width="2" height="2" transform="matrix(-1 0 0 1 291 527)" fill="#0E3A39"/>
<rect x="-1" y="261" width="2" height="2" fill="#0E3A39"/>
<rect width="2" height="2" transform="matrix(-1 0 0 1 273 280)" fill="#0E3A39"/>
<rect x="17" y="14" width="2" height="2" fill="#0E3A39"/>
<rect width="2" height="2" transform="matrix(-1 0 0 1 273 299)" fill="#0E3A39"/>
<rect x="17" y="33" width="2" height="2" fill="#0E3A39"/>
<rect width="2" height="2" transform="matrix(-1 0 0 1 273 318)" fill="#0E3A39"/>
<rect x="17" y="52" width="2" height="2" fill="#0E3A39"/>
<rect width="2" height="2" transform="matrix(-1 0 0 1 273 337)" fill="#0E3A39"/>
<rect x="17" y="71" width="2" height="2" fill="#0E3A39"/>
<rect width="2" height="2" transform="matrix(-1 0 0 1 273 356)" fill="#0E3A39"/>
<rect x="17" y="90" width="2" height="2" fill="#0E3A39"/>
<rect width="2" height="2" transform="matrix(-1 0 0 1 273 375)" fill="#0E3A39"/>
<rect x="17" y="109" width="2" height="2" fill="#0E3A39"/>
<rect width="2" height="2" transform="matrix(-1 0 0 1 273 394)" fill="#0E3A39"/>
<rect x="17" y="128" width="2" height="2" fill="#0E3A39"/>
<rect width="2" height="2" transform="matrix(-1 0 0 1 273 413)" fill="#0E3A39"/>
<rect x="17" y="147" width="2" height="2" fill="#0E3A39"/>
<rect width="2" height="2" transform="matrix(-1 0 0 1 273 432)" fill="#0E3A39"/>
<rect x="17" y="166" width="2" height="2" fill="#0E3A39"/>
<rect width="2" height="2" transform="matrix(-1 0 0 1 273 451)" fill="#0E3A39"/>
<rect x="17" y="185" width="2" height="2" fill="#0E3A39"/>
<rect width="2" height="2" transform="matrix(-1 0 0 1 273 470)" fill="#0E3A39"/>
<rect x="17" y="204" width="2" height="2" fill="#0E3A39"/>
<rect width="2" height="2" transform="matrix(-1 0 0 1 273 489)" fill="#0E3A39"/>
<rect x="17" y="223" width="2" height="2" fill="#0E3A39"/>
<rect width="2" height="2" transform="matrix(-1 0 0 1 273 508)" fill="#0E3A39"/>
<rect x="17" y="242" width="2" height="2" fill="#0E3A39"/>
<rect width="2" height="2" transform="matrix(-1 0 0 1 273 527)" fill="#0E3A39"/>
<rect x="17" y="261" width="2" height="2" fill="#0E3A39"/>
<rect width="2" height="2" transform="matrix(-1 0 0 1 255 280)" fill="#0E3A39"/>
<rect x="35" y="14" width="2" height="2" fill="#0E3A39"/>
<rect width="2" height="2" transform="matrix(-1 0 0 1 255 299)" fill="#0E3A39"/>
<rect x="35" y="33" width="2" height="2" fill="#0E3A39"/>
<rect width="2" height="2" transform="matrix(-1 0 0 1 255 318)" fill="#0E3A39"/>
<rect x="35" y="52" width="2" height="2" fill="#0E3A39"/>
<rect width="2" height="2" transform="matrix(-1 0 0 1 255 337)" fill="#0E3A39"/>
<rect x="35" y="71" width="2" height="2" fill="#0E3A39"/>
<rect width="2" height="2" transform="matrix(-1 0 0 1 255 356)" fill="#0E3A39"/>
<rect x="35" y="90" width="2" height="2" fill="#0E3A39" fill-opacity="0.55"/>
<rect width="2" height="2" transform="matrix(-1 0 0 1 255 375)" fill="#0E3A39" fill-opacity="0.55"/>
<rect x="35" y="109" width="2" height="2" fill="#0E3A39"/>
<rect width="2" height="2" transform="matrix(-1 0 0 1 255 394)" fill="#0E3A39"/>
<rect x="35" y="128" width="2" height="2" fill="#0E3A39"/>
<rect width="2" height="2" transform="matrix(-1 0 0 1 255 413)" fill="#0E3A39"/>
<rect x="35" y="147" width="2" height="2" fill="#0E3A39"/>
<rect width="2" height="2" transform="matrix(-1 0 0 1 255 432)" fill="#0E3A39"/>
<rect x="35" y="166" width="2" height="2" fill="#0E3A39"/>
<rect width="2" height="2" transform="matrix(-1 0 0 1 255 451)" fill="#0E3A39"/>
<rect x="35" y="185" width="2" height="2" fill="#0E3A39"/>
<rect width="2" height="2" transform="matrix(-1 0 0 1 255 470)" fill="#0E3A39"/>
<rect x="35" y="204" width="2" height="2" fill="#0E3A39"/>
<rect width="2" height="2" transform="matrix(-1 0 0 1 255 489)" fill="#0E3A39"/>
<rect x="35" y="223" width="2" height="2" fill="#0E3A39"/>
<rect width="2" height="2" transform="matrix(-1 0 0 1 255 508)" fill="#0E3A39"/>
<rect x="35" y="242" width="2" height="2" fill="#0E3A39"/>
<rect width="2" height="2" transform="matrix(-1 0 0 1 255 527)" fill="#0E3A39"/>
<rect x="35" y="261" width="2" height="2" fill="#0E3A39"/>
<rect width="2" height="2" transform="matrix(-1 0 0 1 237 280)" fill="#0E3A39"/>
<rect x="53" y="14" width="2" height="2" fill="#0E3A39"/>
<rect width="2" height="2" transform="matrix(-1 0 0 1 237 299)" fill="#0E3A39"/>
<rect x="53" y="33" width="2" height="2" fill="#0E3A39"/>
<rect width="2" height="2" transform="matrix(-1 0 0 1 237 318)" fill="#0E3A39"/>
<rect x="53" y="52" width="2" height="2" fill="#0E3A39"/>
<rect width="2" height="2" transform="matrix(-1 0 0 1 237 337)" fill="#0E3A39"/>
<rect x="53" y="71" width="2" height="2" fill="#0E3A39"/>
<rect width="2" height="2" transform="matrix(-1 0 0 1 237 356)" fill="#0E3A39"/>
<rect x="53" y="90" width="2" height="2" fill="#0E3A39"/>
<rect width="2" height="2" transform="matrix(-1 0 0 1 237 375)" fill="#0E3A39"/>
<rect x="53" y="109" width="2" height="2" fill="#0E3A39"/>
<rect width="2" height="2" transform="matrix(-1 0 0 1 237 394)" fill="#0E3A39"/>
<rect x="53" y="128" width="2" height="2" fill="#0E3A39"/>
<rect width="2" height="2" transform="matrix(-1 0 0 1 237 413)" fill="#0E3A39"/>
<rect x="53" y="147" width="2" height="2" fill="#0E3A39"/>
<rect width="2" height="2" transform="matrix(-1 0 0 1 237 432)" fill="#0E3A39"/>
<rect x="53" y="166" width="2" height="2" fill="#0E3A39"/>
<rect width="2" height="2" transform="matrix(-1 0 0 1 237 451)" fill="#0E3A39"/>
<rect x="53" y="185" width="2" height="2" fill="#0E3A39"/>
<rect width="2" height="2" transform="matrix(-1 0 0 1 237 470)" fill="#0E3A39"/>
<rect x="53" y="204" width="2" height="2" fill="#0E3A39"/>
<rect width="2" height="2" transform="matrix(-1 0 0 1 237 489)" fill="#0E3A39"/>
<rect x="53" y="223" width="2" height="2" fill="#0E3A39"/>
<rect width="2" height="2" transform="matrix(-1 0 0 1 237 508)" fill="#0E3A39"/>
<rect x="53" y="242" width="2" height="2" fill="#0E3A39"/>
<rect width="2" height="2" transform="matrix(-1 0 0 1 237 527)" fill="#0E3A39"/>
<rect x="53" y="261" width="2" height="2" fill="#0E3A39"/>
<rect width="2" height="2" transform="matrix(-1 0 0 1 219 280)" fill="#0E3A39"/>
<rect x="71" y="14" width="2" height="2" fill="#0E3A39"/>
<rect width="2" height="2" transform="matrix(-1 0 0 1 219 299)" fill="#0E3A39"/>
<rect x="71" y="33" width="2" height="2" fill="#0E3A39" fill-opacity="0.55"/>
<rect width="2" height="2" transform="matrix(-1 0 0 1 219 318)" fill="#0E3A39" fill-opacity="0.55"/>
<rect x="71" y="52" width="2" height="2" fill="#0E3A39"/>
<rect width="2" height="2" transform="matrix(-1 0 0 1 219 337)" fill="#0E3A39"/>
<rect x="71" y="71" width="2" height="2" fill="#0E3A39"/>
<rect width="2" height="2" transform="matrix(-1 0 0 1 219 356)" fill="#0E3A39"/>
<rect x="71" y="90" width="2" height="2" fill="#0E3A39"/>
<rect width="2" height="2" transform="matrix(-1 0 0 1 219 375)" fill="#0E3A39"/>
<rect x="71" y="109" width="2" height="2" fill="#0E3A39"/>
<rect width="2" height="2" transform="matrix(-1 0 0 1 219 394)" fill="#0E3A39"/>
<rect x="71" y="128" width="2" height="2" fill="#0E3A39"/>
<rect width="2" height="2" transform="matrix(-1 0 0 1 219 413)" fill="#0E3A39"/>
<rect x="71" y="147" width="2" height="2" fill="#0E3A39"/>
<rect width="2" height="2" transform="matrix(-1 0 0 1 219 432)" fill="#0E3A39"/>
<rect x="71" y="166" width="2" height="2" fill="#0E3A39" fill-opacity="0.55"/>
<rect width="2" height="2" transform="matrix(-1 0 0 1 219 451)" fill="#0E3A39" fill-opacity="0.55"/>
<rect x="71" y="185" width="2" height="2" fill="#0E3A39"/>
<rect width="2" height="2" transform="matrix(-1 0 0 1 219 470)" fill="#0E3A39"/>
<rect x="71" y="204" width="2" height="2" fill="#0E3A39"/>
<rect width="2" height="2" transform="matrix(-1 0 0 1 219 489)" fill="#0E3A39"/>
<rect x="71" y="223" width="2" height="2" fill="#0E3A39"/>
<rect width="2" height="2" transform="matrix(-1 0 0 1 219 508)" fill="#0E3A39"/>
<rect x="71" y="242" width="2" height="2" fill="#0E3A39"/>
<rect width="2" height="2" transform="matrix(-1 0 0 1 219 527)" fill="#0E3A39"/>
<rect x="71" y="261" width="2" height="2" fill="#0E3A39"/>
<rect width="2" height="2" transform="matrix(-1 0 0 1 201 280)" fill="#0E3A39"/>
<rect x="89" y="14" width="2" height="2" fill="#0E3A39"/>
<rect width="2" height="2" transform="matrix(-1 0 0 1 201 299)" fill="#0E3A39"/>
<rect x="89" y="33" width="2" height="2" fill="#0E3A39"/>
<rect width="2" height="2" transform="matrix(-1 0 0 1 201 318)" fill="#0E3A39"/>
<rect x="89" y="52" width="2" height="2" fill="#0E3A39"/>
<rect width="2" height="2" transform="matrix(-1 0 0 1 201 337)" fill="#0E3A39"/>
<rect x="89" y="71" width="2" height="2" fill="#0E3A39"/>
<rect width="2" height="2" transform="matrix(-1 0 0 1 201 356)" fill="#0E3A39"/>
<rect x="89" y="90" width="2" height="2" fill="#0E3A39"/>
<rect width="2" height="2" transform="matrix(-1 0 0 1 201 375)" fill="#0E3A39"/>
<rect x="89" y="109" width="2" height="2" fill="#0E3A39"/>
<rect width="2" height="2" transform="matrix(-1 0 0 1 201 394)" fill="#0E3A39"/>
<rect x="89" y="128" width="2" height="2" fill="#0E3A39"/>
<rect width="2" height="2" transform="matrix(-1 0 0 1 201 413)" fill="#0E3A39"/>
<rect x="89" y="147" width="2" height="2" fill="#0E3A39"/>
<rect width="2" height="2" transform="matrix(-1 0 0 1 201 432)" fill="#0E3A39"/>
<rect x="89" y="166" width="2" height="2" fill="#0E3A39"/>
<rect width="2" height="2" transform="matrix(-1 0 0 1 201 451)" fill="#0E3A39"/>
<rect x="89" y="185" width="2" height="2" fill="#0E3A39"/>
<rect width="2" height="2" transform="matrix(-1 0 0 1 201 470)" fill="#0E3A39"/>
<rect x="89" y="204" width="2" height="2" fill="#0E3A39"/>
<rect width="2" height="2" transform="matrix(-1 0 0 1 201 489)" fill="#0E3A39"/>
<rect x="89" y="223" width="2" height="2" fill="#0E3A39"/>
<rect width="2" height="2" transform="matrix(-1 0 0 1 201 508)" fill="#0E3A39"/>
<rect x="89" y="242" width="2" height="2" fill="#0E3A39"/>
<rect width="2" height="2" transform="matrix(-1 0 0 1 201 527)" fill="#0E3A39"/>
<rect x="89" y="261" width="2" height="2" fill="#0E3A39"/>
<rect width="2" height="2" transform="matrix(-1 0 0 1 183 280)" fill="#0E3A39"/>
<rect x="107" y="14" width="2" height="2" fill="#0E3A39"/>
<rect width="2" height="2" transform="matrix(-1 0 0 1 183 299)" fill="#0E3A39"/>
<rect x="107" y="33" width="2" height="2" fill="#0E3A39"/>
<rect width="2" height="2" transform="matrix(-1 0 0 1 183 318)" fill="#0E3A39"/>
<rect x="107" y="52" width="2" height="2" fill="#0E3A39" fill-opacity="0.55"/>
<rect width="2" height="2" transform="matrix(-1 0 0 1 183 337)" fill="#0E3A39" fill-opacity="0.55"/>
<rect x="107" y="71" width="2" height="2" fill="#0E3A39"/>
<rect width="2" height="2" transform="matrix(-1 0 0 1 183 356)" fill="#0E3A39"/>
<rect x="107" y="90" width="2" height="2" fill="#0E3A39"/>
<rect width="2" height="2" transform="matrix(-1 0 0 1 183 375)" fill="#0E3A39"/>
<rect x="107" y="109" width="2" height="2" fill="#0E3A39"/>
<rect width="2" height="2" transform="matrix(-1 0 0 1 183 394)" fill="#0E3A39"/>
<rect x="107" y="128" width="2" height="2" fill="#0E3A39"/>
<rect width="2" height="2" transform="matrix(-1 0 0 1 183 413)" fill="#0E3A39"/>
<rect x="107" y="147" width="2" height="2" fill="#0E3A39"/>
<rect width="2" height="2" transform="matrix(-1 0 0 1 183 432)" fill="#0E3A39"/>
<rect x="107" y="166" width="2" height="2" fill="#0E3A39"/>
<rect width="2" height="2" transform="matrix(-1 0 0 1 183 451)" fill="#0E3A39"/>
<rect x="107" y="185" width="2" height="2" fill="#0E3A39"/>
<rect width="2" height="2" transform="matrix(-1 0 0 1 183 470)" fill="#0E3A39"/>
<rect x="107" y="204" width="2" height="2" fill="#0E3A39"/>
<rect width="2" height="2" transform="matrix(-1 0 0 1 183 489)" fill="#0E3A39"/>
<rect x="107" y="223" width="2" height="2" fill="#0E3A39"/>
<rect width="2" height="2" transform="matrix(-1 0 0 1 183 508)" fill="#0E3A39"/>
<rect x="107" y="242" width="2" height="2" fill="#0E3A39"/>
<rect width="2" height="2" transform="matrix(-1 0 0 1 183 527)" fill="#0E3A39"/>
<rect x="107" y="261" width="2" height="2" fill="#0E3A39" fill-opacity="0.55"/>
<rect width="2" height="2" transform="matrix(-1 0 0 1 165 280)" fill="#0E3A39"/>
<rect x="125" y="14" width="2" height="2" fill="#0E3A39"/>
<rect width="2" height="2" transform="matrix(-1 0 0 1 165 299)" fill="#0E3A39"/>
<rect x="125" y="33" width="2" height="2" fill="#0E3A39"/>
<rect width="2" height="2" transform="matrix(-1 0 0 1 165 318)" fill="#0E3A39"/>
<rect x="125" y="52" width="2" height="2" fill="#0E3A39"/>
<rect width="2" height="2" transform="matrix(-1 0 0 1 165 337)" fill="#0E3A39"/>
<rect x="125" y="71" width="2" height="2" fill="#0E3A39"/>
<rect width="2" height="2" transform="matrix(-1 0 0 1 165 356)" fill="#0E3A39"/>
<rect x="125" y="90" width="2" height="2" fill="#0E3A39"/>
<rect width="2" height="2" transform="matrix(-1 0 0 1 165 375)" fill="#0E3A39"/>
<rect x="125" y="109" width="2" height="2" fill="#0E3A39"/>
<rect width="2" height="2" transform="matrix(-1 0 0 1 165 394)" fill="#0E3A39"/>
<rect x="125" y="128" width="2" height="2" fill="#0E3A39"/>
<rect width="2" height="2" transform="matrix(-1 0 0 1 165 413)" fill="#0E3A39"/>
<rect x="125" y="147" width="2" height="2" fill="#0E3A39"/>
<rect width="2" height="2" transform="matrix(-1 0 0 1 165 432)" fill="#0E3A39"/>
<rect x="125" y="166" width="2" height="2" fill="#0E3A39"/>
<rect width="2" height="2" transform="matrix(-1 0 0 1 165 451)" fill="#0E3A39"/>
<rect x="125" y="185" width="2" height="2" fill="#0E3A39"/>
<rect width="2" height="2" transform="matrix(-1 0 0 1 165 470)" fill="#0E3A39"/>
<rect x="125" y="204" width="2" height="2" fill="#0E3A39" fill-opacity="0.55"/>
<rect width="2" height="2" transform="matrix(-1 0 0 1 165 489)" fill="#0E3A39" fill-opacity="0.55"/>
<rect x="125" y="223" width="2" height="2" fill="#0E3A39"/>
<rect width="2" height="2" transform="matrix(-1 0 0 1 165 508)" fill="#0E3A39"/>
<rect x="125" y="242" width="2" height="2" fill="#0E3A39"/>
<rect width="2" height="2" transform="matrix(-1 0 0 1 165 527)" fill="#0E3A39"/>
<rect x="125" y="261" width="2" height="2" fill="#0E3A39"/>
<rect width="2" height="2" transform="matrix(-1 0 0 1 147 280)" fill="#0E3A39"/>
<rect x="143" y="14" width="2" height="2" fill="#0E3A39"/>
<rect width="2" height="2" transform="matrix(-1 0 0 1 147 299)" fill="#0E3A39"/>
<rect x="143" y="33" width="2" height="2" fill="#0E3A39"/>
<rect width="2" height="2" transform="matrix(-1 0 0 1 147 318)" fill="#0E3A39"/>
<rect x="143" y="52" width="2" height="2" fill="#0E3A39"/>
<rect width="2" height="2" transform="matrix(-1 0 0 1 147 337)" fill="#0E3A39"/>
<rect x="143" y="71" width="2" height="2" fill="#0E3A39"/>
<rect width="2" height="2" transform="matrix(-1 0 0 1 147 356)" fill="#0E3A39"/>
<rect x="143" y="90" width="2" height="2" fill="#0E3A39"/>
<rect width="2" height="2" transform="matrix(-1 0 0 1 147 375)" fill="#0E3A39"/>
<rect x="143" y="109" width="2" height="2" fill="#0E3A39"/>
<rect width="2" height="2" transform="matrix(-1 0 0 1 147 394)" fill="#0E3A39"/>
<rect x="143" y="128" width="2" height="2" fill="#0E3A39"/>
<rect width="2" height="2" transform="matrix(-1 0 0 1 147 413)" fill="#0E3A39"/>
<rect x="143" y="147" width="2" height="2" fill="#0E3A39"/>
<rect width="2" height="2" transform="matrix(-1 0 0 1 147 432)" fill="#0E3A39"/>
<rect x="143" y="166" width="2" height="2" fill="#0E3A39"/>
<rect width="2" height="2" transform="matrix(-1 0 0 1 147 451)" fill="#0E3A39"/>
<rect x="143" y="185" width="2" height="2" fill="#0E3A39"/>
<rect width="2" height="2" transform="matrix(-1 0 0 1 147 470)" fill="#0E3A39"/>
<rect x="143" y="204" width="2" height="2" fill="#0E3A39"/>
<rect width="2" height="2" transform="matrix(-1 0 0 1 147 489)" fill="#0E3A39"/>
<rect x="143" y="223" width="2" height="2" fill="#0E3A39"/>
<rect width="2" height="2" transform="matrix(-1 0 0 1 147 508)" fill="#0E3A39"/>
<rect x="143" y="242" width="2" height="2" fill="#0E3A39"/>
<rect width="2" height="2" transform="matrix(-1 0 0 1 147 527)" fill="#0E3A39"/>
<rect x="143" y="261" width="2" height="2" fill="#0E3A39"/>
<rect width="2" height="2" transform="matrix(-1 0 0 1 129 280)" fill="#0E3A39"/>
<rect x="161" y="14" width="2" height="2" fill="#0E3A39"/>
<rect width="2" height="2" transform="matrix(-1 0 0 1 129 299)" fill="#0E3A39"/>
<rect x="161" y="33" width="2" height="2" fill="#0E3A39"/>
<rect width="2" height="2" transform="matrix(-1 0 0 1 129 318)" fill="#0E3A39"/>
<rect x="161" y="52" width="2" height="2" fill="#0E3A39"/>
<rect width="2" height="2" transform="matrix(-1 0 0 1 129 337)" fill="#0E3A39"/>
<rect x="161" y="71" width="2" height="2" fill="#0E3A39"/>
<rect width="2" height="2" transform="matrix(-1 0 0 1 129 356)" fill="#0E3A39"/>
<rect x="161" y="90" width="2" height="2" fill="#0E3A39" fill-opacity="0.55"/>
<rect width="2" height="2" transform="matrix(-1 0 0 1 129 375)" fill="#0E3A39" fill-opacity="0.55"/>
<rect x="161" y="109" width="2" height="2" fill="#0E3A39"/>
<rect width="2" height="2" transform="matrix(-1 0 0 1 129 394)" fill="#0E3A39"/>
<rect x="161" y="128" width="2" height="2" fill="#0E3A39"/>
<rect width="2" height="2" transform="matrix(-1 0 0 1 129 413)" fill="#0E3A39"/>
<rect x="161" y="147" width="2" height="2" fill="#0E3A39"/>
<rect width="2" height="2" transform="matrix(-1 0 0 1 129 432)" fill="#0E3A39"/>
<rect x="161" y="166" width="2" height="2" fill="#0E3A39"/>
<rect width="2" height="2" transform="matrix(-1 0 0 1 129 451)" fill="#0E3A39"/>
<rect x="161" y="185" width="2" height="2" fill="#0E3A39"/>
<rect width="2" height="2" transform="matrix(-1 0 0 1 129 470)" fill="#0E3A39"/>
<rect x="161" y="204" width="2" height="2" fill="#0E3A39"/>
<rect width="2" height="2" transform="matrix(-1 0 0 1 129 489)" fill="#0E3A39"/>
<rect x="161" y="223" width="2" height="2" fill="#0E3A39"/>
<rect width="2" height="2" transform="matrix(-1 0 0 1 129 508)" fill="#0E3A39"/>
<rect x="161" y="242" width="2" height="2" fill="#0E3A39"/>
<rect width="2" height="2" transform="matrix(-1 0 0 1 129 527)" fill="#0E3A39"/>
<rect x="161" y="261" width="2" height="2" fill="#0E3A39"/>
<rect width="2" height="2" transform="matrix(-1 0 0 1 111 280)" fill="#0E3A39"/>
<rect x="179" y="14" width="2" height="2" fill="#0E3A39"/>
<rect width="2" height="2" transform="matrix(-1 0 0 1 111 299)" fill="#0E3A39"/>
<rect x="179" y="33" width="2" height="2" fill="#0E3A39"/>
<rect width="2" height="2" transform="matrix(-1 0 0 1 111 318)" fill="#0E3A39"/>
<rect x="179" y="52" width="2" height="2" fill="#0E3A39"/>
<rect width="2" height="2" transform="matrix(-1 0 0 1 111 337)" fill="#0E3A39"/>
<rect x="179" y="71" width="2" height="2" fill="#0E3A39"/>
<rect width="2" height="2" transform="matrix(-1 0 0 1 111 356)" fill="#0E3A39"/>
<rect x="179" y="90" width="2" height="2" fill="#0E3A39"/>
<rect width="2" height="2" transform="matrix(-1 0 0 1 111 375)" fill="#0E3A39"/>
<rect x="179" y="109" width="2" height="2" fill="#0E3A39"/>
<rect width="2" height="2" transform="matrix(-1 0 0 1 111 394)" fill="#0E3A39"/>
<rect x="179" y="128" width="2" height="2" fill="#0E3A39"/>
<rect width="2" height="2" transform="matrix(-1 0 0 1 111 413)" fill="#0E3A39"/>
<rect x="179" y="147" width="2" height="2" fill="#0E3A39"/>
<rect width="2" height="2" transform="matrix(-1 0 0 1 111 432)" fill="#0E3A39"/>
<rect x="179" y="166" width="2" height="2" fill="#0E3A39"/>
<rect width="2" height="2" transform="matrix(-1 0 0 1 111 451)" fill="#0E3A39"/>
<rect x="179" y="185" width="2" height="2" fill="#0E3A39"/>
<rect width="2" height="2" transform="matrix(-1 0 0 1 111 470)" fill="#0E3A39"/>
<rect x="179" y="204" width="2" height="2" fill="#0E3A39"/>
<rect width="2" height="2" transform="matrix(-1 0 0 1 111 489)" fill="#0E3A39"/>
<rect x="179" y="223" width="2" height="2" fill="#0E3A39"/>
<rect width="2" height="2" transform="matrix(-1 0 0 1 111 508)" fill="#0E3A39"/>
<rect x="179" y="242" width="2" height="2" fill="#0E3A39"/>
<rect width="2" height="2" transform="matrix(-1 0 0 1 111 527)" fill="#0E3A39"/>
<rect x="179" y="261" width="2" height="2" fill="#0E3A39"/>
<rect width="2" height="2" transform="matrix(-1 0 0 1 93 280)" fill="#0E3A39"/>
<rect x="197" y="14" width="2" height="2" fill="#0E3A39"/>
<rect width="2" height="2" transform="matrix(-1 0 0 1 93 299)" fill="#0E3A39"/>
<rect x="197" y="33" width="2" height="2" fill="#0E3A39"/>
<rect width="2" height="2" transform="matrix(-1 0 0 1 93 318)" fill="#0E3A39"/>
<rect x="197" y="52" width="2" height="2" fill="#0E3A39"/>
<rect width="2" height="2" transform="matrix(-1 0 0 1 93 337)" fill="#0E3A39"/>
<rect x="197" y="71" width="2" height="2" fill="#0E3A39"/>
<rect width="2" height="2" transform="matrix(-1 0 0 1 93 356)" fill="#0E3A39"/>
<rect x="197" y="90" width="2" height="2" fill="#0E3A39"/>
<rect width="2" height="2" transform="matrix(-1 0 0 1 93 375)" fill="#0E3A39"/>
<rect x="197" y="109" width="2" height="2" fill="#0E3A39"/>
<rect width="2" height="2" transform="matrix(-1 0 0 1 93 394)" fill="#0E3A39"/>
<rect x="197" y="128" width="2" height="2" fill="#0E3A39"/>
<rect width="2" height="2" transform="matrix(-1 0 0 1 93 413)" fill="#0E3A39"/>
<rect x="197" y="147" width="2" height="2" fill="#0E3A39"/>
<rect width="2" height="2" transform="matrix(-1 0 0 1 93 432)" fill="#0E3A39"/>
<rect x="197" y="166" width="2" height="2" fill="#0E3A39"/>
<rect width="2" height="2" transform="matrix(-1 0 0 1 93 451)" fill="#0E3A39"/>
<rect x="197" y="185" width="2" height="2" fill="#0E3A39"/>
<rect width="2" height="2" transform="matrix(-1 0 0 1 93 470)" fill="#0E3A39"/>
<rect x="197" y="204" width="2" height="2" fill="#0E3A39"/>
<rect width="2" height="2" transform="matrix(-1 0 0 1 93 489)" fill="#0E3A39"/>
<rect x="197" y="223" width="2" height="2" fill="#0E3A39"/>
<rect width="2" height="2" transform="matrix(-1 0 0 1 93 508)" fill="#0E3A39"/>
<rect x="197" y="242" width="2" height="2" fill="#0E3A39"/>
<rect width="2" height="2" transform="matrix(-1 0 0 1 93 527)" fill="#0E3A39"/>
<rect x="197" y="261" width="2" height="2" fill="#0E3A39"/>
<rect width="2" height="2" transform="matrix(-1 0 0 1 75 280)" fill="#0E3A39"/>
<rect x="215" y="14" width="2" height="2" fill="#0E3A39"/>
<rect width="2" height="2" transform="matrix(-1 0 0 1 75 299)" fill="#0E3A39"/>
<rect x="215" y="33" width="2" height="2" fill="#0E3A39"/>
<rect width="2" height="2" transform="matrix(-1 0 0 1 75 318)" fill="#0E3A39"/>
<rect x="215" y="52" width="2" height="2" fill="#0E3A39"/>
<rect width="2" height="2" transform="matrix(-1 0 0 1 75 337)" fill="#0E3A39"/>
<rect x="215" y="71" width="2" height="2" fill="#0E3A39"/>
<rect width="2" height="2" transform="matrix(-1 0 0 1 75 356)" fill="#0E3A39"/>
<rect x="215" y="90" width="2" height="2" fill="#0E3A39"/>
<rect width="2" height="2" transform="matrix(-1 0 0 1 75 375)" fill="#0E3A39"/>
<rect x="215" y="109" width="2" height="2" fill="#0E3A39"/>
<rect width="2" height="2" transform="matrix(-1 0 0 1 75 394)" fill="#0E3A39"/>
<rect x="215" y="128" width="2" height="2" fill="#0E3A39"/>
<rect width="2" height="2" transform="matrix(-1 0 0 1 75 413)" fill="#0E3A39"/>
<rect x="215" y="147" width="2" height="2" fill="#0E3A39" fill-opacity="0.55"/>
<rect width="2" height="2" transform="matrix(-1 0 0 1 75 432)" fill="#0E3A39" fill-opacity="0.55"/>
<rect x="215" y="166" width="2" height="2" fill="#0E3A39"/>
<rect width="2" height="2" transform="matrix(-1 0 0 1 75 451)" fill="#0E3A39"/>
<rect x="215" y="185" width="2" height="2" fill="#0E3A39"/>
<rect width="2" height="2" transform="matrix(-1 0 0 1 75 470)" fill="#0E3A39"/>
<rect x="215" y="204" width="2" height="2" fill="#0E3A39"/>
<rect width="2" height="2" transform="matrix(-1 0 0 1 75 489)" fill="#0E3A39"/>
<rect x="215" y="223" width="2" height="2" fill="#0E3A39"/>
<rect width="2" height="2" transform="matrix(-1 0 0 1 75 508)" fill="#0E3A39"/>
<rect x="215" y="242" width="2" height="2" fill="#0E3A39"/>
<rect width="2" height="2" transform="matrix(-1 0 0 1 75 527)" fill="#0E3A39"/>
<rect x="215" y="261" width="2" height="2" fill="#0E3A39"/>
<rect width="2" height="2" transform="matrix(-1 0 0 1 57 280)" fill="#0E3A39"/>
<rect x="233" y="14" width="2" height="2" fill="#0E3A39" fill-opacity="0.55"/>
<rect width="2" height="2" transform="matrix(-1 0 0 1 57 299)" fill="#0E3A39" fill-opacity="0.55"/>
<rect x="233" y="33" width="2" height="2" fill="#0E3A39"/>
<rect width="2" height="2" transform="matrix(-1 0 0 1 57 318)" fill="#0E3A39"/>
<rect x="233" y="52" width="2" height="2" fill="#0E3A39"/>
<rect width="2" height="2" transform="matrix(-1 0 0 1 57 337)" fill="#0E3A39"/>
<rect x="233" y="71" width="2" height="2" fill="#0E3A39"/>
<rect width="2" height="2" transform="matrix(-1 0 0 1 57 356)" fill="#0E3A39"/>
<rect x="233" y="90" width="2" height="2" fill="#0E3A39"/>
<rect width="2" height="2" transform="matrix(-1 0 0 1 57 375)" fill="#0E3A39"/>
<rect x="233" y="109" width="2" height="2" fill="#0E3A39"/>
<rect width="2" height="2" transform="matrix(-1 0 0 1 57 394)" fill="#0E3A39"/>
<rect x="233" y="128" width="2" height="2" fill="#0E3A39"/>
<rect width="2" height="2" transform="matrix(-1 0 0 1 57 413)" fill="#0E3A39"/>
<rect x="233" y="147" width="2" height="2" fill="#0E3A39"/>
<rect width="2" height="2" transform="matrix(-1 0 0 1 57 432)" fill="#0E3A39"/>
<rect x="233" y="166" width="2" height="2" fill="#0E3A39"/>
<rect width="2" height="2" transform="matrix(-1 0 0 1 57 451)" fill="#0E3A39"/>
<rect x="233" y="185" width="2" height="2" fill="#0E3A39"/>
<rect width="2" height="2" transform="matrix(-1 0 0 1 57 470)" fill="#0E3A39"/>
<rect x="233" y="204" width="2" height="2" fill="#0E3A39"/>
<rect width="2" height="2" transform="matrix(-1 0 0 1 57 489)" fill="#0E3A39"/>
<rect x="233" y="223" width="2" height="2" fill="#0E3A39"/>
<rect width="2" height="2" transform="matrix(-1 0 0 1 57 508)" fill="#0E3A39"/>
<rect x="233" y="242" width="2" height="2" fill="#0E3A39" fill-opacity="0.55"/>
<rect width="2" height="2" transform="matrix(-1 0 0 1 57 527)" fill="#0E3A39" fill-opacity="0.55"/>
<rect x="233" y="261" width="2" height="2" fill="#0E3A39"/>
<rect width="2" height="2" transform="matrix(-1 0 0 1 39 280)" fill="#0E3A39"/>
<rect x="251" y="14" width="2" height="2" fill="#0E3A39"/>
<rect width="2" height="2" transform="matrix(-1 0 0 1 39 299)" fill="#0E3A39"/>
<rect x="251" y="33" width="2" height="2" fill="#0E3A39"/>
<rect width="2" height="2" transform="matrix(-1 0 0 1 39 318)" fill="#0E3A39"/>
<rect x="251" y="52" width="2" height="2" fill="#0E3A39"/>
<rect width="2" height="2" transform="matrix(-1 0 0 1 39 337)" fill="#0E3A39"/>
<rect x="251" y="71" width="2" height="2" fill="#0E3A39"/>
<rect width="2" height="2" transform="matrix(-1 0 0 1 39 356)" fill="#0E3A39"/>
<rect x="251" y="90" width="2" height="2" fill="#0E3A39"/>
<rect width="2" height="2" transform="matrix(-1 0 0 1 39 375)" fill="#0E3A39"/>
<rect x="251" y="109" width="2" height="2" fill="#0E3A39"/>
<rect width="2" height="2" transform="matrix(-1 0 0 1 39 394)" fill="#0E3A39"/>
<rect x="251" y="128" width="2" height="2" fill="#0E3A39"/>
<rect width="2" height="2" transform="matrix(-1 0 0 1 39 413)" fill="#0E3A39"/>
<rect x="251" y="147" width="2" height="2" fill="#0E3A39"/>
<rect width="2" height="2" transform="matrix(-1 0 0 1 39 432)" fill="#0E3A39"/>
<rect x="251" y="166" width="2" height="2" fill="#0E3A39"/>
<rect width="2" height="2" transform="matrix(-1 0 0 1 39 451)" fill="#0E3A39"/>
<rect x="251" y="185" width="2" height="2" fill="#0E3A39"/>
<rect width="2" height="2" transform="matrix(-1 0 0 1 39 470)" fill="#0E3A39"/>
<rect x="251" y="204" width="2" height="2" fill="#0E3A39"/>
<rect width="2" height="2" transform="matrix(-1 0 0 1 39 489)" fill="#0E3A39"/>
<rect x="251" y="223" width="2" height="2" fill="#0E3A39"/>
<rect width="2" height="2" transform="matrix(-1 0 0 1 39 508)" fill="#0E3A39"/>
<rect x="251" y="242" width="2" height="2" fill="#0E3A39"/>
<rect width="2" height="2" transform="matrix(-1 0 0 1 39 527)" fill="#0E3A39"/>
<rect x="251" y="261" width="2" height="2" fill="#0E3A39"/>
<rect width="2" height="2" transform="matrix(-1 0 0 1 21 280)" fill="#0E3A39"/>
<rect x="269" y="14" width="2" height="2" fill="#0E3A39"/>
<rect width="2" height="2" transform="matrix(-1 0 0 1 21 299)" fill="#0E3A39"/>
<rect x="269" y="33" width="2" height="2" fill="#0E3A39"/>
<rect width="2" height="2" transform="matrix(-1 0 0 1 21 318)" fill="#0E3A39"/>
<rect x="269" y="52" width="2" height="2" fill="#0E3A39"/>
<rect width="2" height="2" transform="matrix(-1 0 0 1 21 337)" fill="#0E3A39"/>
<rect x="269" y="71" width="2" height="2" fill="#0E3A39"/>
<rect width="2" height="2" transform="matrix(-1 0 0 1 21 356)" fill="#0E3A39"/>
<rect x="269" y="90" width="2" height="2" fill="#0E3A39"/>
<rect width="2" height="2" transform="matrix(-1 0 0 1 21 375)" fill="#0E3A39"/>
<rect x="269" y="109" width="2" height="2" fill="#0E3A39" fill-opacity="0.55"/>
<rect width="2" height="2" transform="matrix(-1 0 0 1 21 394)" fill="#0E3A39" fill-opacity="0.55"/>
<rect x="269" y="128" width="2" height="2" fill="#0E3A39"/>
<rect width="2" height="2" transform="matrix(-1 0 0 1 21 413)" fill="#0E3A39"/>
<rect x="269" y="147" width="2" height="2" fill="#0E3A39"/>
<rect width="2" height="2" transform="matrix(-1 0 0 1 21 432)" fill="#0E3A39"/>
<rect x="269" y="166" width="2" height="2" fill="#0E3A39"/>
<rect width="2" height="2" transform="matrix(-1 0 0 1 21 451)" fill="#0E3A39"/>
<rect x="269" y="185" width="2" height="2" fill="#0E3A39"/>
<rect width="2" height="2" transform="matrix(-1 0 0 1 21 470)" fill="#0E3A39"/>
<rect x="269" y="204" width="2" height="2" fill="#0E3A39"/>
<rect width="2" height="2" transform="matrix(-1 0 0 1 21 489)" fill="#0E3A39"/>
<rect x="269" y="223" width="2" height="2" fill="#0E3A39"/>
<rect width="2" height="2" transform="matrix(-1 0 0 1 21 508)" fill="#0E3A39"/>
<rect x="269" y="242" width="2" height="2" fill="#0E3A39"/>
<rect width="2" height="2" transform="matrix(-1 0 0 1 21 527)" fill="#0E3A39"/>
<rect x="269" y="261" width="2" height="2" fill="#0E3A39"/>
<rect width="2" height="2" transform="matrix(-1 0 0 1 3 280)" fill="#0E3A39"/>
<rect x="287" y="14" width="2" height="2" fill="#0E3A39"/>
<rect width="2" height="2" transform="matrix(-1 0 0 1 3 299)" fill="#0E3A39"/>
<rect x="287" y="33" width="2" height="2" fill="#0E3A39"/>
<rect width="2" height="2" transform="matrix(-1 0 0 1 3 318)" fill="#0E3A39"/>
<rect x="287" y="52" width="2" height="2" fill="#0E3A39"/>
<rect width="2" height="2" transform="matrix(-1 0 0 1 3 337)" fill="#0E3A39"/>
<rect x="287" y="71" width="2" height="2" fill="#0E3A39"/>
<rect width="2" height="2" transform="matrix(-1 0 0 1 3 356)" fill="#0E3A39"/>
<rect x="287" y="90" width="2" height="2" fill="#0E3A39"/>
<rect width="2" height="2" transform="matrix(-1 0 0 1 3 375)" fill="#0E3A39"/>
<rect x="287" y="109" width="2" height="2" fill="#0E3A39"/>
<rect width="2" height="2" transform="matrix(-1 0 0 1 3 394)" fill="#0E3A39"/>
<rect x="287" y="128" width="2" height="2" fill="#0E3A39"/>
<rect width="2" height="2" transform="matrix(-1 0 0 1 3 413)" fill="#0E3A39"/>
<rect x="287" y="147" width="2" height="2" fill="#0E3A39"/>
<rect width="2" height="2" transform="matrix(-1 0 0 1 3 432)" fill="#0E3A39"/>
<rect x="287" y="166" width="2" height="2" fill="#0E3A39"/>
<rect width="2" height="2" transform="matrix(-1 0 0 1 3 451)" fill="#0E3A39"/>
<rect x="287" y="185" width="2" height="2" fill="#0E3A39"/>
<rect width="2" height="2" transform="matrix(-1 0 0 1 3 470)" fill="#0E3A39"/>
<rect x="287" y="204" width="2" height="2" fill="#0E3A39"/>
<rect width="2" height="2" transform="matrix(-1 0 0 1 3 489)" fill="#0E3A39"/>
<rect x="287" y="223" width="2" height="2" fill="#0E3A39"/>
<rect width="2" height="2" transform="matrix(-1 0 0 1 3 508)" fill="#0E3A39"/>
<rect x="287" y="242" width="2" height="2" fill="#0E3A39"/>
<rect width="2" height="2" transform="matrix(-1 0 0 1 3 527)" fill="#0E3A39"/>
<rect x="287" y="261" width="2" height="2" fill="#0E3A39"/>
</g>
</svg>
