<svg width="121" height="60" viewBox="0 0 121 60" fill="none" xmlns="http://www.w3.org/2000/svg">
<path d="M34.6113 7.847C34.8074 7.98194 35.0109 8.04883 35.2124 8.04883C35.5021 8.04883 35.7879 7.91068 36.0419 7.63826C36.2107 7.45749 36.3856 7.28228 36.5605 7.10724C36.8026 6.86514 37.0526 6.61479 37.2854 6.34945C38.3362 5.1533 38.9206 3.91351 38.9755 2.76437C38.9755 2.75948 38.9759 2.75493 38.9759 2.75038C38.9831 1.82463 38.7014 1.06617 38.1829 0.614496C37.7784 0.262726 37.2475 0.113796 36.682 0.19719C35.7576 0.332473 35.2243 0.848503 34.7078 1.58136C34.7068 1.58237 34.7061 1.58355 34.7054 1.58456C34.3068 1.17854 33.8649 0.892138 33.2839 0.661668C32.2515 0.252281 31.4175 0.326408 30.7349 0.888936C30.0526 1.45096 29.8391 2.57601 30.249 3.45072C31.2142 5.51181 33.019 6.75244 34.6113 7.847Z" fill="white"/>
<path d="M40.3649 21.2744C40.2043 21.2389 40.0218 21.1843 39.8217 21.1112C39.6669 21.0551 39.5097 20.9324 39.3552 20.7466C39.2725 20.6474 39.1241 20.3599 39.0548 19.5474V11.7593C39.0548 10.724 38.81 9.97197 38.3274 9.52316C37.8452 9.07553 37.067 8.85803 35.9484 8.85803C35.306 8.85803 34.7008 8.95304 34.1494 9.14055C33.6066 9.32469 33.1253 9.55517 32.7184 9.8259C32.308 10.0998 31.98 10.3915 31.743 10.6927C31.4756 11.0328 31.3457 11.3432 31.3457 11.6419C31.3457 11.977 31.4119 12.2276 31.5475 12.4087C31.6724 12.575 31.8333 12.7012 32.0263 12.7841C32.1815 12.8506 32.354 12.9064 32.5381 12.9495C32.6458 12.9753 32.7433 13.0294 32.8353 13.1145C32.9298 13.2028 33.0124 13.3478 33.081 13.5453C33.1559 13.7619 33.1938 14.0884 33.1938 14.5165V22.2901C33.1938 23.3239 33.4376 24.0801 33.9183 24.5377C34.4008 24.9973 35.1704 25.2207 36.271 25.2207C36.6487 25.2207 37.1005 25.1582 37.6137 25.0349C38.1282 24.9114 38.6287 24.7237 39.102 24.4771C39.5843 24.2252 40.0003 23.9156 40.3386 23.556C40.7129 23.1581 40.903 22.6926 40.903 22.1729C40.903 21.4965 40.5667 21.3197 40.3649 21.2744Z" fill="white"/>
<path d="M52.1091 21.482C51.895 21.0222 51.5127 20.7688 51.0331 20.7688C50.7907 20.7688 50.5602 20.8288 50.3477 20.9471C50.043 21.098 49.8748 21.1209 49.8012 21.1209C49.691 21.1209 49.4858 21.1209 49.3586 20.5602C49.2208 19.9564 49.1512 19.1073 49.1512 18.0364V11.4319H49.9771C50.7061 11.4319 51.2417 11.2294 51.5697 10.83C51.8847 10.4462 52.0229 10.0264 51.9799 9.58177C51.9369 9.13784 51.7156 8.74867 51.3399 8.45604C51.0548 8.2345 50.556 8.02829 49.8149 8.29818L49.1512 8.5145V6.8601C49.1512 6.37996 49.0121 6.00511 48.737 5.74499C48.1778 5.21969 47.2467 5.23519 46.2596 5.86376L42.2351 8.47794C41.8581 8.72947 41.5973 9.01806 41.4592 9.33546C41.3096 9.67965 41.2897 10.0297 41.4012 10.3471C41.5083 10.6546 41.7119 10.9073 42.005 11.0975C42.2496 11.2569 42.5338 11.3479 42.8531 11.3688C42.8558 11.3822 42.8585 11.3969 42.8615 11.4127C42.8961 11.6031 42.9233 11.9149 42.9417 12.3385C42.9611 12.7896 42.9707 13.414 42.9707 14.1937V20.4418C42.9707 21.2717 43.0927 21.9859 43.3331 22.5637C43.5779 23.1547 43.9212 23.6446 44.3533 24.02C44.7774 24.3883 45.2646 24.6604 45.802 24.8285C46.3199 24.9902 46.8563 25.0723 47.3956 25.0723C47.9014 25.0723 48.41 25.0135 48.9081 24.8974C49.4036 24.7817 49.8652 24.6203 50.2798 24.4181C50.6961 24.2152 51.0668 23.9804 51.3818 23.7199C51.7334 23.4287 51.9779 23.1097 52.0998 22.7927C52.2953 22.3444 52.2986 21.8917 52.1091 21.482Z" fill="white"/>
<path d="M73.5911 21.0819C73.4159 20.9999 73.2098 20.9119 72.973 20.8193C72.8321 20.7642 72.6913 20.6526 72.5538 20.4875C72.5102 20.4353 72.3636 20.2026 72.294 19.3926V14.1053C72.294 12.255 71.8563 10.8511 70.9933 9.9331C70.1207 9.00616 68.8825 8.53629 67.3116 8.53629C65.948 8.53629 64.7254 8.8633 63.678 9.50888C63.0447 9.89923 62.4532 10.3853 61.9097 10.9613V3.10509C61.9097 2.01221 61.6677 1.23859 61.1695 0.739914C60.6779 0.248817 59.912 -1.52588e-05 58.8926 -1.52588e-05C58.1776 -1.52588e-05 57.5079 0.0968552 56.9017 0.28824C56.303 0.477264 55.7812 0.714643 55.351 0.993971C54.9163 1.2765 54.5654 1.57891 54.3069 1.89327C54.0005 2.26796 53.8516 2.61636 53.8516 2.95852C53.8516 3.57395 54.0451 3.97171 54.4267 4.1412C54.6095 4.22223 54.8167 4.30832 55.0496 4.39946C55.1904 4.45455 55.3316 4.56608 55.4687 4.73034C55.5124 4.78307 55.6593 5.01675 55.7288 5.82592V19.6202C55.7288 20.5281 55.6016 20.904 55.5257 21.0475C55.3858 21.3117 55.2367 21.5063 55.0817 21.6256C54.875 21.7853 54.6879 21.9212 54.5249 22.0297C54.1949 22.2497 54.0274 22.6332 54.0274 23.1696C54.0274 23.5263 54.1201 23.8494 54.3026 24.1297C54.4897 24.4176 54.8001 24.6483 55.2243 24.8156C55.5897 24.9596 56.0582 25.0663 56.6573 25.1412C57.2245 25.2122 57.9471 25.248 58.8046 25.248C59.6618 25.248 60.3842 25.2122 60.9523 25.1412C61.5517 25.0661 62.0203 24.9595 62.3847 24.8156C62.8069 24.6493 63.1209 24.4155 63.3183 24.1193C63.5126 23.827 63.6111 23.4976 63.6111 23.1403C63.6111 22.604 63.444 22.2208 63.1136 22.0001C62.9517 21.8924 62.7683 21.7548 62.5678 21.5905C62.4655 21.507 62.3063 21.3228 62.1293 20.9202C62.029 20.6921 61.9097 20.2 61.9097 19.1509V16.023C62.0113 15.661 62.1665 15.3296 62.3724 15.0368C62.5958 14.7182 62.8569 14.4392 63.1495 14.2072C63.4403 13.9759 63.7473 13.794 64.0616 13.6666C64.7374 13.3923 65.2812 13.4296 65.6276 13.7633C65.8134 13.9432 65.9079 14.2753 65.9079 14.7507V22.1429C65.9079 23.2439 66.164 24.017 66.691 24.5069C67.2074 24.9857 68.0243 25.2186 69.1889 25.2186C69.5796 25.2186 70.0491 25.1547 70.5849 25.0287C71.1167 24.9037 71.6387 24.7246 72.1348 24.4965C72.6476 24.2618 73.0953 23.9771 73.4659 23.6504C73.9147 23.2547 74.1422 22.7868 74.1422 22.2602C74.1422 21.6513 73.9573 21.2551 73.5911 21.0819Z" fill="white"/>
<path d="M84.3248 22.0001C84.1629 21.8923 83.9794 21.7548 83.7789 21.5904C83.6766 21.507 83.5174 21.3228 83.3404 20.92C83.2401 20.6921 83.1209 20.2 83.1209 19.1509V3.1051C83.1209 2.01222 82.8788 1.2386 82.3806 0.73992C81.889 0.248823 81.1231 -0.000179291 80.1037 -0.000179291C79.3887 -0.000179291 78.719 0.0968628 78.1129 0.288246C77.5141 0.477272 76.9923 0.714479 76.5621 0.993975C76.1274 1.2765 75.7765 1.57891 75.518 1.89328C75.2116 2.26796 75.0625 2.61619 75.0625 2.95836C75.0625 3.57379 75.2562 3.97172 75.6377 4.1412C75.8205 4.22223 76.0278 4.30832 76.2607 4.39947C76.4015 4.45456 76.5427 4.56609 76.6797 4.73035C76.7233 4.78308 76.8704 5.01658 76.94 5.82592V19.6202C76.94 20.5281 76.8128 20.9038 76.7366 21.0474C76.5969 21.3117 76.4478 21.5061 76.2927 21.6256C76.0861 21.7853 75.899 21.9211 75.7359 22.0297C75.4058 22.2496 75.2386 22.6332 75.2386 23.1696C75.2386 23.5263 75.3312 23.8492 75.5137 24.1297C75.7008 24.4176 76.0112 24.6483 76.4352 24.8156C76.8008 24.9596 77.2693 25.0661 77.8682 25.1412C78.4356 25.2122 79.1582 25.248 80.0157 25.248C80.8729 25.248 81.5953 25.2122 82.1634 25.1412C82.7629 25.0659 83.2314 24.9595 83.5958 24.8156C84.018 24.6493 84.3318 24.4155 84.5293 24.1193C84.7237 23.827 84.8223 23.4976 84.8223 23.1403C84.8223 22.604 84.6551 22.2206 84.3248 22.0001Z" fill="white"/>
<path d="M104.557 21.4478C104.407 21.2476 104.212 21.1036 103.976 21.019C103.831 20.9675 103.671 20.9157 103.494 20.8632C103.419 20.8414 103.347 20.7931 103.274 20.7149C103.229 20.6662 103.14 20.5429 103.056 20.2622C102.983 20.0198 102.946 19.6559 102.946 19.1805V11.7003C102.946 10.58 102.69 9.79709 102.162 9.30717C101.647 8.82804 100.83 8.59521 99.665 8.59521C99.2743 8.59521 98.8048 8.65923 98.2691 8.78508C97.7402 8.90975 97.2186 9.08884 96.7181 9.31762C96.2012 9.555 95.7514 9.84662 95.3815 10.1839C94.9372 10.5891 94.7121 11.0498 94.7121 11.5536C94.7121 12.1645 94.8973 12.5609 95.2608 12.731C95.4357 12.8139 95.6428 12.9015 95.8806 12.9949C96.0174 13.0484 96.1561 13.1623 96.2932 13.3328C96.3382 13.3893 96.49 13.6361 96.5603 14.4506V17.7909C96.4568 18.1599 96.3035 18.5009 96.1037 18.8044C95.8882 19.1318 95.6402 19.4148 95.3675 19.6455C95.0984 19.8724 94.8159 20.0457 94.5278 20.161C94.2495 20.2725 93.9843 20.3289 93.7397 20.3289C93.4472 20.3289 93.2245 20.2427 93.0387 20.0567C92.8611 19.8793 92.7673 19.5358 92.7673 19.0632V11.7003C92.7673 10.5793 92.511 9.79642 91.9839 9.30717C91.4684 8.82804 90.6513 8.59521 89.4863 8.59521C89.09 8.59521 88.6335 8.65721 88.09 8.78508C87.5605 8.90992 87.0392 9.089 86.5397 9.31762C86.0228 9.55466 85.573 9.84629 85.2024 10.1839C84.7581 10.5891 84.5332 11.0498 84.5332 11.5536C84.5332 12.1641 84.7184 12.5604 85.0824 12.7312C85.2576 12.8139 85.4643 12.9017 85.7016 12.9947C85.8387 13.0484 85.9779 13.1623 86.1141 13.3325C86.1591 13.3891 86.3109 13.6361 86.3812 14.4506V19.7378C86.3812 21.5903 86.8197 22.99 87.684 23.8977C88.5555 24.8133 89.7934 25.2778 91.3636 25.2778C92.6167 25.2778 93.7699 25.0059 94.7903 24.4695C95.4623 24.1162 96.0904 23.6598 96.6672 23.1069C96.7907 23.724 97.0212 24.1934 97.3629 24.5269C97.8991 25.0519 98.7672 25.3071 100.017 25.3071C100.657 25.3071 101.272 25.2089 101.843 25.0152C102.405 24.8243 102.902 24.5802 103.322 24.2902C103.743 23.9983 104.087 23.6868 104.344 23.3631C104.647 22.98 104.794 22.6387 104.794 22.3193C104.794 21.9454 104.717 21.6604 104.557 21.4478Z" fill="white"/>
<path d="M120.239 9.05259C119.75 8.61288 119.109 8.39016 118.334 8.39016C118.013 8.39016 117.633 8.42722 117.204 8.50034C116.762 8.57632 116.33 8.70756 115.92 8.89069C115.495 9.08072 115.129 9.32181 114.832 9.60737C114.478 9.94869 114.29 10.3884 114.29 10.8793C114.29 11.3937 114.441 11.8046 114.736 12.0996C114.961 12.3245 115.217 12.524 115.498 12.6924C115.708 12.8183 115.899 12.9628 116.066 13.1212C116.174 13.2245 116.197 13.4425 116.197 13.6074C116.197 13.7577 116.173 13.9255 116.126 14.1052C116.072 14.3106 115.985 14.567 115.867 14.8674C115.744 15.1791 115.588 15.5468 115.392 15.9906C115.308 16.1795 115.215 16.3858 115.112 16.6092L112.408 11.349C111.917 10.3682 111.312 9.64224 110.608 9.19158C109.899 8.73771 109.113 8.50758 108.273 8.50758C107.73 8.50758 107.191 8.59553 106.669 8.76922C106.154 8.94123 105.695 9.16614 105.304 9.43738C104.903 9.7162 104.573 10.0355 104.325 10.3859C104.047 10.7784 103.906 11.1812 103.906 11.5834C103.906 12.3166 104.278 12.6884 104.59 12.8708C104.922 13.0659 105.268 13.2002 105.617 13.2701C105.997 13.3463 106.283 13.4952 106.491 13.7243C106.741 14.0006 107.045 14.4942 107.39 15.1845L111.94 24.6073C112.104 24.935 112.337 25.1868 112.633 25.3558C112.918 25.5182 113.217 25.6006 113.523 25.6006C113.845 25.6006 114.156 25.5201 114.449 25.3605C114.759 25.1917 115 24.9382 115.162 24.6127L118.714 17.7139L119.433 16.2765C119.702 15.7403 119.955 15.1735 120.185 14.5923C120.418 14.0048 120.612 13.4116 120.763 12.8291C120.92 12.2221 120.999 11.6351 120.999 11.0845C120.999 10.1903 120.744 9.50662 120.239 9.05259Z" fill="white"/>
<path d="M48.7993 33.228C49.8245 33.228 50.6454 32.8208 51.1737 32.0502C51.6527 31.3521 51.8956 30.5215 51.8956 29.5821C51.8956 27.5854 50.796 26.4858 48.7993 26.4858C46.8027 26.4858 45.7031 27.5854 45.7031 29.5821C45.7031 30.5215 45.9459 31.3519 46.4247 32.0502C46.9529 32.8208 47.774 33.228 48.7993 33.228Z" fill="white"/>
<path d="M53.9679 46.626C53.8195 46.5934 53.652 46.5428 53.4673 46.4754C53.3708 46.4406 53.2613 46.3509 53.1486 46.2153C53.142 46.2074 52.9985 46.0249 52.9289 45.2244V37.4512C52.9289 36.3151 52.6466 35.4767 52.0898 34.9594C51.54 34.4489 50.684 34.2007 49.4732 34.2007C48.7928 34.2007 48.1497 34.3021 47.5617 34.502C46.9908 34.6957 46.4822 34.9396 46.0502 35.2271C45.6085 35.5219 45.2532 35.8384 44.9934 36.1688C44.6758 36.5728 44.5215 36.9539 44.5215 37.3338C44.5215 37.7471 44.6103 38.0665 44.7931 38.3101C44.955 38.5259 45.1637 38.6897 45.4135 38.797C45.5871 38.8714 45.7791 38.9336 45.9843 38.9816C46.0128 38.9885 46.0605 39.0049 46.124 39.0637C46.1405 39.079 46.2065 39.1511 46.276 39.3518C46.3108 39.4525 46.3695 39.6983 46.3695 40.2084V47.9821C46.3695 49.1152 46.6498 49.9566 47.2024 50.4827C47.7529 51.0068 48.6014 51.2617 49.7958 51.2617C50.2067 51.2617 50.6727 51.1979 51.2201 51.0663C51.7622 50.9362 52.2899 50.7384 52.7881 50.4785C53.3054 50.2088 53.7529 49.8752 54.1178 49.4872C54.5552 49.0224 54.7769 48.4765 54.7769 47.8648C54.7769 46.9109 54.2112 46.6808 53.9679 46.626Z" fill="white"/>
<path d="M29.8527 9.23903C29.5609 9.02002 29.2036 8.86098 28.7893 8.76596C28.4176 8.68139 28.0174 8.62782 27.5989 8.60693C27.1868 8.58654 26.8236 8.57677 26.4878 8.57677C26.1724 8.57677 25.8045 8.58654 25.3636 8.60676C24.9094 8.62782 24.4693 8.69251 24.0542 8.79865C23.6096 8.91304 23.2289 9.08454 22.9223 9.30844C22.5326 9.5935 22.3267 10.0084 22.3267 10.5086C22.3267 10.9494 22.4879 11.3274 22.793 11.6015C22.9851 11.7747 23.1773 11.9528 23.369 12.1342C23.506 12.265 23.6066 12.4242 23.6768 12.6206C23.6952 12.672 23.7375 12.8809 23.5094 13.4197L22.1262 16.8011L21.6097 15.6383C21.2574 14.8459 20.2921 12.1581 19.7156 10.5524C19.4425 9.79196 19.2979 9.39015 19.2536 9.28098C18.9236 8.46255 18.0891 8.45614 17.591 8.45244L16.1096 8.43829C15.4869 8.4275 14.8102 8.55335 14.4641 9.49444L14.2374 10.1109C13.9063 11.0105 13.5749 11.9103 13.2523 12.8135C13.0924 13.2618 12.6815 14.2984 12.2839 15.3007C12.0474 15.8979 11.8609 16.3679 11.7153 16.7406L10.1393 13.1942C9.95345 12.6277 10.0084 12.4323 10.0217 12.3977C10.0899 12.2203 10.1829 12.0805 10.3071 11.9696C10.4855 11.8101 10.6691 11.6548 10.8578 11.5038C11.0807 11.3249 11.3471 10.9866 11.3471 10.3912C11.3471 10.0118 11.2202 9.66847 10.9798 9.3974C10.754 9.14418 10.4149 8.95448 9.942 8.81718C9.53177 8.69891 9.01321 8.61602 8.35651 8.5638C7.72608 8.51393 6.94724 8.48883 6.04204 8.48883C4.17554 8.48883 2.85135 8.6108 1.99315 8.86199C1.60263 8.97639 0.414062 9.32428 0.414062 10.2738C0.414062 10.6685 0.496614 10.9962 0.659526 11.2479C0.804918 11.4725 1.00119 11.6703 1.24294 11.8354C1.44578 11.9743 1.68148 12.1137 1.94227 12.249C2.1468 12.3556 2.37743 12.5231 2.6266 12.7463C2.88336 12.9766 3.15645 13.2827 3.43881 13.655C3.71527 14.0209 3.99494 14.5319 4.27005 15.1743L7.96767 23.7729C8.20572 24.3142 8.45321 24.7309 8.72428 25.0469C9.0619 25.441 9.54137 25.6406 10.1485 25.6406C10.5365 25.6406 10.8738 25.5564 11.1516 25.3898C11.388 25.2479 11.5982 25.0793 11.7773 24.8884C11.9608 24.693 12.1101 24.4748 12.2206 24.2411C12.3119 24.0487 12.388 23.8811 12.4477 23.7413L15.4236 16.8813L18.3521 23.7729C18.59 24.3142 18.8377 24.7309 19.1087 25.0469C19.4462 25.441 19.9256 25.6406 20.5328 25.6406C20.9208 25.6406 21.2581 25.5564 21.5359 25.3898C21.7713 25.2484 21.9817 25.0799 22.1616 24.8884C22.3451 24.693 22.4943 24.4748 22.6049 24.2411C22.6962 24.0487 22.7723 23.8811 22.8316 23.7423L26.5594 15.2008C26.9637 14.2442 27.3753 13.5349 27.7823 13.0925C28.1996 12.6395 28.5785 12.3037 28.9086 12.0953C29.2737 11.8648 29.572 11.6822 29.8015 11.5479C30.1967 11.3183 30.4142 10.9179 30.4142 10.4205C30.4142 9.92286 30.2203 9.51431 29.8527 9.23903Z" fill="white"/>
<path d="M94.2963 41.6676C93.8291 41.3813 93.4071 41.1266 93.0248 40.8959C91.0054 39.6772 90.1692 39.1725 89.7302 38.2789C89.5171 37.8459 89.5385 37.5988 89.573 37.4507C89.669 37.0376 90.1175 36.7433 90.4932 36.6446C90.9712 36.5185 91.5482 36.67 91.9269 37.0214C92.3611 37.4242 92.3784 37.9955 92.3968 38.6003C92.417 39.2463 92.4391 39.9783 93.0777 40.4047C93.5193 40.6995 94.1585 40.7586 94.8334 40.5673C95.6607 40.3322 96.3421 39.7822 96.6551 39.0965C97.0604 38.2083 96.8306 37.3897 96.755 37.1198C96.6478 36.7406 96.3301 35.9973 95.4055 35.2789C93.5793 33.8602 91.1919 33.9357 90.042 33.9724C87.593 34.0503 83.7889 35.3428 82.9996 37.9713C82.7234 38.89 82.7455 39.7332 83.0648 40.4776C83.2076 40.8109 83.4649 41.2464 84.2894 41.9499C84.9628 42.5249 85.479 42.8207 86.1933 43.23C86.3614 43.3263 86.5432 43.4303 86.7434 43.5474L86.8156 43.5898C88.1368 44.3621 88.7997 44.7499 89.5038 45.4091C90.1825 46.0448 90.7057 46.5908 90.7554 47.344C90.8165 48.2797 90.3967 48.4529 90.2392 48.5178C89.8245 48.6881 89.2688 48.6099 88.9163 48.3335C88.5977 48.0836 88.5337 47.7405 88.4478 47.1555C88.3533 46.5123 88.2357 45.7117 87.5283 44.9802C87.2233 44.6648 86.5725 44.1237 85.6397 44.0437C84.2094 43.9244 83.2516 44.9849 83.1482 45.1061C83.0112 45.2673 82.3319 46.129 82.4295 47.2743C82.5897 49.1637 84.7446 50.1692 85.6648 50.5984C87.0594 51.2491 88.3572 51.3584 89.2118 51.3584C89.4805 51.3584 89.7056 51.3476 89.8761 51.3392C90.9078 51.2897 92.4707 51.1059 94.1288 50.0881C95.2497 49.3997 95.8944 48.4644 95.9244 48.4202C96.0454 48.2383 96.1552 48.0476 96.2511 47.8535C96.6901 46.9596 96.7573 46.1396 96.7659 45.828C96.7767 45.4324 96.739 44.0506 95.8072 42.8745C95.3747 42.3285 94.9223 42.0513 94.2963 41.6676Z" fill="white"/>
<path d="M81.4678 47.1013C81.1672 46.4547 80.6018 46.0842 79.9167 46.0842C79.5888 46.0842 79.2768 46.1641 78.9889 46.3216C78.9028 46.3639 78.8359 46.3907 78.7867 46.4077C78.7759 46.3752 78.7643 46.3342 78.7528 46.2835C78.6238 45.7173 78.5586 44.9074 78.5586 43.8754V37.7723C79.1927 37.7027 80.0944 37.5824 80.3712 37.4387C81.2959 36.9588 81.749 35.9799 81.4486 35.1113C81.1935 34.3742 80.4692 33.9163 79.5583 33.9163C79.3794 33.9163 79.2042 33.9344 79.0366 33.9701C78.9751 33.9787 78.72 33.9923 78.5586 34.0061V32.6993C78.5586 31.9145 78.2446 31.4533 77.9811 31.2044C77.6179 30.8631 77.1416 30.6839 76.6018 30.6839C76.0482 30.6839 75.4641 30.8773 74.8655 31.2587L70.839 33.8742C70.3665 34.1894 70.0417 34.554 69.8626 34.9649C69.6592 35.4341 69.6346 35.9163 69.7908 36.3609C69.9343 36.7726 70.2162 37.1247 70.6054 37.3769C70.807 37.5087 71.0289 37.6047 71.2683 37.6642C71.2798 37.7957 71.2917 37.9708 71.3018 38.2014C71.3205 38.6437 71.3301 39.2604 71.3301 40.0329V46.281C71.3301 47.1793 71.4656 47.9608 71.7328 48.6041C72.0094 49.2704 72.3999 49.8258 72.8937 50.2546C73.3717 50.6704 73.9221 50.9777 74.5291 51.1674C75.098 51.3451 75.6867 51.4351 76.2792 51.4351C76.8249 51.4351 77.3737 51.3715 77.9105 51.2464C78.4442 51.1217 78.9427 50.9473 79.3929 50.7278C79.8464 50.5069 80.2522 50.2495 80.599 49.9626C81.0141 49.6184 81.3076 49.2346 81.4722 48.821C81.7208 48.2376 81.7195 47.6433 81.4678 47.1013Z" fill="white"/>
<path d="M35.5668 44.9313C35.5668 45.3537 35.509 45.7269 35.3951 46.0404C35.2789 46.3593 35.1333 46.629 34.9625 46.8411C34.8149 47.0238 34.654 47.156 34.4709 47.2446C34.2906 47.3324 34.1094 47.3747 33.9156 47.3747C33.7055 47.3747 33.4948 47.3134 33.2717 47.1873C33.0345 47.0536 32.8084 46.8283 32.5993 46.5173C32.3626 46.1666 32.1644 45.6913 32.0092 45.104C31.8476 44.4918 31.7657 43.7328 31.7657 42.8485C31.7657 41.9258 31.8527 41.1272 32.0244 40.4751C32.1895 39.8465 32.4043 39.3295 32.663 38.9378C32.8987 38.5805 33.1533 38.3171 33.4196 38.1546C33.6552 38.011 33.875 37.9411 34.0915 37.9411C34.3014 37.9411 34.6267 38.0001 35.0287 38.5102C35.3857 38.9632 35.5668 39.7025 35.5668 40.7072V44.9313ZM42.4796 34.8326C42.084 34.5127 41.5909 34.3503 41.0144 34.3503C40.5091 34.3503 39.9835 34.4642 39.4519 34.6891C39.2916 34.7494 39.0412 34.8461 38.6997 34.9784C38.4666 35.0692 38.2359 35.113 37.9931 35.113C37.8169 35.113 37.6255 35.0779 37.4244 35.0087C37.1055 34.8993 36.7486 34.7804 36.3524 34.6513C35.9278 34.5135 35.4443 34.3858 34.914 34.2713C34.3424 34.1485 33.6713 34.0863 32.9183 34.0863C31.7248 34.0863 30.6021 34.2755 29.5812 34.6485C28.5262 35.0346 27.5999 35.6332 26.828 36.4281C25.7415 37.5467 25.2631 38.8263 25.0344 39.456C24.385 41.2458 24.4017 42.7629 24.42 43.67C24.4434 44.8193 24.4569 45.4824 24.729 46.2805C25.7179 49.1812 29.0448 50.7017 31.0996 51.0108C31.5686 51.0812 32.5562 51.1768 33.752 51.0856C34.5004 51.0287 35.1215 50.9145 35.5668 50.8146V51.0622C35.5668 51.6603 35.5429 52.3279 35.4957 53.0468C35.4517 53.7119 35.3463 54.3383 35.1824 54.9081C34.8218 56.1603 33.75 56.7431 32.5756 56.1278C31.8186 55.7316 31.7283 54.9165 31.4229 54.1936C31.4061 54.1537 31.4005 54.1409 31.3914 54.1195C31.1507 53.558 30.3103 51.5973 28.8321 51.201C27.0273 50.7172 25.1702 52.8062 24.8196 53.7424C24.507 54.5777 24.5631 55.427 24.5631 55.427C24.5659 55.4706 24.569 55.505 24.5712 55.5287C24.6252 56.1275 24.8389 56.7173 25.2054 57.2807C25.5712 57.8424 26.1339 58.338 26.8782 58.753C27.575 59.1409 28.4438 59.4408 29.5347 59.6699C30.5792 59.8893 31.8655 60.0005 33.3581 60.0005C36.469 60.0005 38.8387 59.2766 40.4009 57.8488C41.9896 56.3957 42.7953 54.1126 42.7953 51.0622V40.8538C42.7953 40.0379 42.8094 39.3879 42.8372 38.9218C42.865 38.4592 42.8967 38.1035 42.9311 37.8646C42.9749 37.5555 43.0064 37.4295 43.018 37.3895C43.0611 37.2382 43.0955 37.094 43.1208 36.9577C43.1577 36.8209 43.1764 36.6814 43.1764 36.5418V36.4537C43.1764 35.5795 42.7975 35.0895 42.4796 34.8326Z" fill="white"/>
<path d="M67.5814 34.0465C67.4698 34.0205 67.3694 34.0048 67.2712 33.9969C66.974 33.9727 66.6979 34.0187 66.2019 34.0618C66.1434 34.0668 66.0816 34.0786 66.0166 34.0946L64.2845 34.4024C64.2793 33.3451 64.3418 33.0233 64.2404 32.499C63.9927 31.2195 62.5253 29.9037 62.7715 29.165C62.7898 29.1094 62.9186 28.7234 63.1942 28.6653C63.3854 28.625 63.5635 28.76 63.6367 28.8169C64.3553 29.3761 64.0645 31.0477 64.9407 32.2155C65.1169 32.4502 65.6769 33.1131 66.4913 33.1938C67.7392 33.3173 69.1305 32.0283 69.1751 30.6762C69.2049 29.7791 68.633 29.1193 68.3065 28.7423C67.4046 27.701 66.2196 27.4378 65.6267 27.3061C64.0589 26.9578 62.7747 27.3652 62.3417 27.5042C61.4756 27.7823 60.6774 28.2205 59.9689 28.807C59.2511 29.4013 58.6579 30.1623 58.205 31.0691C57.7997 31.8797 57.5702 32.8292 57.5214 33.8964L57.1229 33.7661C56.2339 33.4841 55.6298 33.7393 55.2783 34.003C54.8095 34.3551 54.5332 34.8251 54.4798 35.3621C54.4259 35.9002 54.6127 36.4253 55.0191 36.8802C55.4347 37.3467 56.0537 37.583 56.8589 37.583H57.5116V45.1584C57.5116 45.7691 57.4547 46.119 57.4065 46.3052C57.3216 46.6357 57.2399 46.8171 57.1866 46.9103C57.1167 47.0323 57.0604 47.0789 57.038 47.0943C56.8589 47.2176 56.6994 47.3377 56.5629 47.4513C56.3946 47.5919 56.2445 47.7495 56.1177 47.9188C55.9108 48.1937 55.8102 48.5381 55.8102 48.9719C55.8102 49.398 55.9221 49.7851 56.1419 50.1226C56.3697 50.4725 56.7351 50.7484 57.2279 50.9423C57.6199 51.0973 58.1161 51.2109 58.7452 51.2899C59.3266 51.3627 60.0636 51.3994 60.9361 51.3994C61.8076 51.3994 62.5449 51.3627 63.1278 51.2899C63.7562 51.2109 64.2527 51.0973 64.6445 50.9427C65.1272 50.7525 65.4921 50.4848 65.7287 50.1472C65.9697 49.8028 66.0922 49.4072 66.0922 48.9719C66.0922 48.5394 65.992 48.1954 65.7853 47.9201C65.6574 47.7496 65.5071 47.5918 65.3376 47.4504C65.203 47.3381 65.043 47.2179 64.8607 47.0923C64.8401 47.0783 64.7856 47.033 64.7158 46.911C64.6616 46.8161 64.5793 46.6338 64.4948 46.3047C64.4474 46.1203 64.3908 45.7719 64.3908 45.1584V37.583H66.6101C66.7621 37.5903 67.811 37.624 68.4727 36.8534C68.7809 36.4947 68.8852 36.1013 68.9128 35.9861C68.967 35.7585 69.0749 35.306 68.8633 34.8726C68.5726 34.2776 67.8726 34.1144 67.5814 34.0465Z" fill="white"/>
</svg>
