<svg width="28" height="21" viewBox="0 0 28 21" fill="none" xmlns="http://www.w3.org/2000/svg">
<g clip-path="url(#clip0_20_14731)">
<mask id="mask0_20_14731" style="mask-type:luminance" maskUnits="userSpaceOnUse" x="0" y="0" width="28" height="21">
<rect width="28" height="21" fill="white"/>
</mask>
<g mask="url(#mask0_20_14731)">
<path fill-rule="evenodd" clip-rule="evenodd" d="M0 0H28V21H0V0Z" fill="#F7FCFF"/>
<path fill-rule="evenodd" clip-rule="evenodd" d="M0 12.8334V14.5834H28V12.8334H0Z" fill="#E31D1C"/>
<path fill-rule="evenodd" clip-rule="evenodd" d="M0 16.0416V17.7916H28V16.0416H0Z" fill="#E31D1C"/>
<path fill-rule="evenodd" clip-rule="evenodd" d="M0 6.41663V8.16663H28V6.41663H0Z" fill="#E31D1C"/>
<path fill-rule="evenodd" clip-rule="evenodd" d="M0 19.25V21H28V19.25H0Z" fill="#E31D1C"/>
<path fill-rule="evenodd" clip-rule="evenodd" d="M0 9.625V11.375H28V9.625H0Z" fill="#E31D1C"/>
<path fill-rule="evenodd" clip-rule="evenodd" d="M0 0V1.75H28V0H0Z" fill="#E31D1C"/>
<path fill-rule="evenodd" clip-rule="evenodd" d="M0 3.20837V4.95837H28V3.20837H0Z" fill="#E31D1C"/>
<rect width="17.5" height="11.375" fill="#2E42A5"/>
<path fill-rule="evenodd" clip-rule="evenodd" d="M1.50828 2.57131L0.873133 3.01658L1.08756 2.22417L0.523438 1.722H1.26026L1.50739 1.07532L1.79716 1.722H2.42529L1.93176 2.22417L2.12282 3.01658L1.50828 2.57131ZM5.00828 2.57131L4.37313 3.01658L4.58756 2.22417L4.02344 1.722H4.76026L5.00739 1.07532L5.29716 1.722H5.92529L5.43176 2.22417L5.62282 3.01658L5.00828 2.57131ZM7.87313 3.01658L8.50828 2.57131L9.12282 3.01658L8.93176 2.22417L9.42529 1.722H8.79716L8.50739 1.07532L8.26026 1.722H7.52344L8.08756 2.22417L7.87313 3.01658ZM12.0083 2.57131L11.3731 3.01658L11.5876 2.22417L11.0234 1.722H11.7603L12.0074 1.07532L12.2972 1.722H12.9253L12.4318 2.22417L12.6228 3.01658L12.0083 2.57131ZM0.873133 6.51658L1.50828 6.07131L2.12282 6.51658L1.93176 5.72417L2.42529 5.222H1.79716L1.50739 4.57532L1.26026 5.222H0.523438L1.08756 5.72417L0.873133 6.51658ZM5.00828 6.07131L4.37313 6.51658L4.58756 5.72417L4.02344 5.222H4.76026L5.00739 4.57532L5.29716 5.222H5.92529L5.43176 5.72417L5.62282 6.51658L5.00828 6.07131ZM7.87313 6.51658L8.50828 6.07131L9.12282 6.51658L8.93176 5.72417L9.42529 5.222H8.79716L8.50739 4.57532L8.26026 5.222H7.52344L8.08756 5.72417L7.87313 6.51658ZM12.0083 6.07131L11.3731 6.51658L11.5876 5.72417L11.0234 5.222H11.7603L12.0074 4.57532L12.2972 5.222H12.9253L12.4318 5.72417L12.6228 6.51658L12.0083 6.07131ZM0.873133 10.0166L1.50828 9.57131L2.12282 10.0166L1.93176 9.22418L2.42529 8.722H1.79716L1.50739 8.07532L1.26026 8.722H0.523438L1.08756 9.22418L0.873133 10.0166ZM5.00828 9.57131L4.37313 10.0166L4.58756 9.22418L4.02344 8.722H4.76026L5.00739 8.07532L5.29716 8.722H5.92529L5.43176 9.22418L5.62282 10.0166L5.00828 9.57131ZM7.87313 10.0166L8.50828 9.57131L9.12282 10.0166L8.93176 9.22418L9.42529 8.722H8.79716L8.50739 8.07532L8.26026 8.722H7.52344L8.08756 9.22418L7.87313 10.0166ZM12.0083 9.57131L11.3731 10.0166L11.5876 9.22418L11.0234 8.722H11.7603L12.0074 8.07532L12.2972 8.722H12.9253L12.4318 9.22418L12.6228 10.0166L12.0083 9.57131ZM14.8731 3.01658L15.5083 2.57131L16.1228 3.01658L15.9318 2.22417L16.4253 1.722H15.7972L15.5074 1.07532L15.2603 1.722H14.5234L15.0876 2.22417L14.8731 3.01658ZM15.5083 6.07131L14.8731 6.51658L15.0876 5.72417L14.5234 5.222H15.2603L15.5074 4.57532L15.7972 5.222H16.4253L15.9318 5.72417L16.1228 6.51658L15.5083 6.07131ZM14.8731 10.0166L15.5083 9.57131L16.1228 10.0166L15.9318 9.22418L16.4253 8.722H15.7972L15.5074 8.07532L15.2603 8.722H14.5234L15.0876 9.22418L14.8731 10.0166ZM3.25828 4.32131L2.62313 4.76658L2.83756 3.97417L2.27344 3.472H3.01026L3.25739 2.82532L3.54716 3.472H4.17529L3.68176 3.97417L3.87282 4.76658L3.25828 4.32131ZM6.12313 4.76658L6.75828 4.32131L7.37282 4.76658L7.18176 3.97417L7.67529 3.472H7.04716L6.75739 2.82532L6.51026 3.472H5.77344L6.33756 3.97417L6.12313 4.76658ZM10.2583 4.32131L9.62313 4.76658L9.83756 3.97417L9.27344 3.472H10.0103L10.2574 2.82532L10.5472 3.472H11.1753L10.6818 3.97417L10.8728 4.76658L10.2583 4.32131ZM2.62313 8.26658L3.25828 7.82131L3.87282 8.26658L3.68176 7.47417L4.17529 6.972H3.54716L3.25739 6.32532L3.01026 6.972H2.27344L2.83756 7.47417L2.62313 8.26658ZM6.75828 7.82131L6.12313 8.26658L6.33756 7.47417L5.77344 6.972H6.51026L6.75739 6.32532L7.04716 6.972H7.67529L7.18176 7.47417L7.37282 8.26658L6.75828 7.82131ZM9.62313 8.26658L10.2583 7.82131L10.8728 8.26658L10.6818 7.47417L11.1753 6.972H10.5472L10.2574 6.32532L10.0103 6.972H9.27344L9.83756 7.47417L9.62313 8.26658ZM13.7583 4.32131L13.1231 4.76658L13.3376 3.97417L12.7734 3.472H13.5103L13.7574 2.82532L14.0472 3.472H14.6753L14.1818 3.97417L14.3728 4.76658L13.7583 4.32131ZM13.1231 8.26658L13.7583 7.82131L14.3728 8.26658L14.1818 7.47417L14.6753 6.972H14.0472L13.7574 6.32532L13.5103 6.972H12.7734L13.3376 7.47417L13.1231 8.26658Z" fill="#F7FCFF"/>
</g>
</g>
<rect width="28" height="21" rx="2" fill="url(#paint0_linear_20_14731)" style="mix-blend-mode:overlay"/>
<rect x="0.5" y="0.5" width="27" height="20" rx="1.5" stroke="black" stroke-opacity="0.1"/>
<defs>
<linearGradient id="paint0_linear_20_14731" x1="14" y1="0" x2="14" y2="21" gradientUnits="userSpaceOnUse">
<stop stop-color="white" stop-opacity="0.7"/>
<stop offset="1" stop-opacity="0.3"/>
</linearGradient>
<clipPath id="clip0_20_14731">
<rect width="28" height="21" rx="2" fill="white"/>
</clipPath>
</defs>
</svg>
