<svg width="153" height="55" viewBox="0 0 153 55" fill="none" xmlns="http://www.w3.org/2000/svg">
<g clip-path="url(#clip0_13_1958)">
<mask id="mask0_13_1958" style="mask-type:luminance" maskUnits="userSpaceOnUse" x="-31" y="-80" width="215" height="215">
<path d="M-31 -80H184V135H-31V-80Z" fill="white"/>
</mask>
<g mask="url(#mask0_13_1958)">
<path d="M54.2985 8.65251C54.4653 8.76732 54.6384 8.82422 54.8099 8.82422C55.0564 8.82422 55.2995 8.70669 55.5156 8.47492C55.6593 8.32112 55.808 8.17205 55.9568 8.02313C56.1628 7.81716 56.3755 7.60417 56.5736 7.37842C57.4676 6.36075 57.9648 5.30596 58.0115 4.32828C58.0115 4.32413 58.0118 4.32026 58.0118 4.31639C58.018 3.52877 57.7783 2.88348 57.3371 2.49921C56.993 2.19993 56.5413 2.07322 56.0602 2.14417C55.2737 2.25927 54.82 2.6983 54.3806 3.3218C54.3797 3.32266 54.3792 3.32366 54.3786 3.32452C54.0395 2.97909 53.6635 2.73542 53.1691 2.53934C52.2908 2.19104 51.5813 2.25411 51.0005 2.7327C50.42 3.21086 50.2384 4.16804 50.5871 4.91222C51.4083 6.66576 52.9438 7.72127 54.2985 8.65251Z" fill="#003B39"/>
<path d="M59.1948 20.0759C59.0582 20.0457 58.903 19.9992 58.7327 19.937C58.601 19.8893 58.4673 19.7849 58.3358 19.6268C58.2655 19.5424 58.1392 19.2979 58.0803 18.6066V11.9806C58.0803 11.0998 57.872 10.46 57.4614 10.0781C57.0511 9.69729 56.3891 9.51224 55.4374 9.51224C54.8908 9.51224 54.376 9.59308 53.9068 9.75261C53.445 9.90928 53.0355 10.1054 52.6894 10.3357C52.3402 10.5688 52.0611 10.8169 51.8595 11.0731C51.632 11.3625 51.5215 11.6266 51.5215 11.8807C51.5215 12.1658 51.5778 12.3791 51.6932 12.5331C51.7994 12.6746 51.9363 12.782 52.1006 12.8525C52.2326 12.9091 52.3793 12.9565 52.536 12.9932C52.6276 13.0152 52.7106 13.0612 52.7888 13.1336C52.8692 13.2087 52.9395 13.3321 52.9978 13.5001C53.0616 13.6844 53.0939 13.9622 53.0939 14.3264V20.9401C53.0939 21.8196 53.3013 22.463 53.7102 22.8523C54.1207 23.2433 54.7754 23.4333 55.7118 23.4333C56.0332 23.4333 56.4176 23.3802 56.8542 23.2753C57.2919 23.1702 57.7178 23.0105 58.1204 22.8007C58.5308 22.5864 58.8847 22.3229 59.1725 22.0171C59.491 21.6785 59.6526 21.2825 59.6526 20.8403C59.6526 20.2648 59.3665 20.1145 59.1948 20.0759Z" fill="#003B39"/>
<path d="M69.1863 20.2526C69.0041 19.8614 68.6789 19.6458 68.2708 19.6458C68.0645 19.6458 67.8685 19.6968 67.6877 19.7975C67.4284 19.9259 67.2854 19.9454 67.2227 19.9454C67.129 19.9454 66.9544 19.9454 66.8462 19.4684C66.729 18.9547 66.6698 18.2323 66.6698 17.3211V11.7021H67.3724C67.9926 11.7021 68.4482 11.5299 68.7273 11.19C68.9953 10.8635 69.1129 10.5063 69.0763 10.1281C69.0398 9.75037 68.8514 9.41928 68.5318 9.17031C68.2893 8.98182 67.8649 8.80638 67.2343 9.036L66.6698 9.22004V7.81251C66.6698 7.40401 66.5514 7.08509 66.3173 6.86378C65.8416 6.41687 65.0494 6.43006 64.2096 6.96483L60.7856 9.18894C60.4649 9.40293 60.243 9.64847 60.1254 9.91851C59.9982 10.2113 59.9812 10.5092 60.0761 10.7792C60.1673 11.0408 60.3404 11.2558 60.5898 11.4176C60.798 11.5532 61.0398 11.6306 61.3114 11.6484C61.3137 11.6599 61.316 11.6723 61.3185 11.6858C61.3479 11.8478 61.3712 12.1131 61.3868 12.4734C61.4033 12.8573 61.4114 13.3885 61.4114 14.0518V19.3676C61.4114 20.0737 61.5152 20.6813 61.7197 21.1729C61.928 21.6757 62.2201 22.0925 62.5878 22.4119C62.9485 22.7252 63.3631 22.9567 63.8203 23.0997C64.2609 23.2373 64.7173 23.3071 65.1761 23.3071C65.6064 23.3071 66.0391 23.2571 66.4629 23.1583C66.8845 23.0599 67.2772 22.9226 67.6299 22.7506C67.9841 22.578 68.2995 22.3782 68.5675 22.1566C68.8666 21.9088 69.0746 21.6374 69.1784 21.3677C69.3446 20.9863 69.3475 20.6011 69.1863 20.2526Z" fill="#003B39"/>
<path d="M87.4621 19.9125C87.313 19.8427 87.1377 19.7679 86.9362 19.6891C86.8163 19.6422 86.6965 19.5473 86.5795 19.4069C86.5424 19.3624 86.4177 19.1645 86.3585 18.4753V13.977C86.3585 12.4027 85.9861 11.2083 85.2519 10.4273C84.5095 9.63869 83.456 9.23894 82.1196 9.23894C80.9594 9.23894 79.9193 9.51714 79.0282 10.0664C78.4894 10.3985 77.9861 10.812 77.5237 11.3021V4.61815C77.5237 3.68835 77.3178 3.03016 76.8939 2.6059C76.4757 2.18808 75.8241 1.97638 74.9568 1.97638C74.3485 1.97638 73.7787 2.05879 73.263 2.22162C72.7536 2.38244 72.3097 2.5844 71.9436 2.82204C71.5738 3.06241 71.2753 3.3197 71.0554 3.58716C70.7947 3.90593 70.668 4.20234 70.668 4.49345C70.668 5.01705 70.8327 5.35546 71.1573 5.49965C71.3128 5.5686 71.4891 5.64184 71.6872 5.71938C71.807 5.76625 71.9272 5.86114 72.0438 6.00089C72.0809 6.04575 72.2059 6.24456 72.2651 6.93299V18.669C72.2651 19.4414 72.1569 19.7612 72.0923 19.8833C71.9733 20.108 71.8465 20.2736 71.7146 20.3751C71.5387 20.511 71.3795 20.6266 71.2409 20.7189C70.9601 20.9061 70.8176 21.2324 70.8176 21.6887C70.8176 21.9922 70.8964 22.2671 71.0517 22.5056C71.2109 22.7505 71.4749 22.9468 71.8358 23.0891C72.1467 23.2116 72.5453 23.3024 73.055 23.3662C73.5376 23.4265 74.1524 23.457 74.882 23.457C75.6112 23.457 76.2259 23.4265 76.7092 23.3662C77.2192 23.3022 77.6178 23.2115 77.9278 23.0891C78.287 22.9476 78.5542 22.7487 78.7222 22.4967C78.8874 22.248 78.9713 21.9678 78.9713 21.6638C78.9713 21.2076 78.8291 20.8815 78.548 20.6937C78.4103 20.6021 78.2542 20.485 78.0836 20.3453C77.9966 20.2742 77.8612 20.1175 77.7105 19.7749C77.6252 19.5809 77.5237 19.1622 77.5237 18.2697V15.6085C77.6102 15.3005 77.7422 15.0186 77.9173 14.7695C78.1074 14.4984 78.3296 14.261 78.5785 14.0637C78.8259 13.8669 79.0871 13.7121 79.3545 13.6037C79.9295 13.3704 80.3921 13.4021 80.6868 13.686C80.8449 13.8391 80.9253 14.1216 80.9253 14.5261V20.8153C80.9253 21.7519 81.1432 22.4097 81.5915 22.8265C82.0309 23.2339 82.7259 23.4319 83.7168 23.4319C84.0491 23.4319 84.4486 23.3776 84.9044 23.2704C85.3569 23.1641 85.801 23.0117 86.2231 22.8176C86.6594 22.618 87.0402 22.3757 87.3556 22.0978C87.7374 21.7611 87.9309 21.3631 87.9309 20.915C87.9309 20.397 87.7737 20.0599 87.4621 19.9125Z" fill="#003B39"/>
<path d="M96.595 20.6937C96.4573 20.602 96.3012 20.485 96.1306 20.3451C96.0436 20.2742 95.9082 20.1175 95.7575 19.7748C95.6722 19.5809 95.5708 19.1622 95.5708 18.2697V4.61816C95.5708 3.68836 95.3648 3.03017 94.941 2.6059C94.5227 2.18809 93.8711 1.97624 93.0038 1.97624C92.3955 1.97624 91.8258 2.0588 91.31 2.22163C90.8006 2.38245 90.3567 2.58426 89.9907 2.82205C89.6209 3.06242 89.3223 3.3197 89.1024 3.58716C88.8417 3.90594 88.7148 4.20221 88.7148 4.49332C88.7148 5.01691 88.8797 5.35547 89.2042 5.49966C89.3597 5.5686 89.5361 5.64185 89.7342 5.71939C89.8541 5.76626 89.9742 5.86115 90.0907 6.0009C90.1278 6.04576 90.253 6.24442 90.3122 6.93299V18.669C90.3122 19.4414 90.2039 19.761 90.1391 19.8832C90.0203 20.108 89.8935 20.2735 89.7615 20.3751C89.5857 20.511 89.4265 20.6265 89.2877 20.7189C89.007 20.906 88.8646 21.2324 88.8646 21.6887C88.8646 21.9922 88.9435 22.2669 89.0987 22.5056C89.2579 22.7505 89.522 22.9468 89.8827 23.0891C90.1938 23.2116 90.5924 23.3022 91.1019 23.3662C91.5847 23.4265 92.1994 23.457 92.929 23.457C93.6583 23.457 94.2729 23.4265 94.7562 23.3662C95.2662 23.3021 95.6648 23.2115 95.9748 23.0891C96.334 22.9476 96.601 22.7487 96.769 22.4967C96.9344 22.248 97.0183 21.9678 97.0183 21.6638C97.0183 21.2076 96.8761 20.8813 96.595 20.6937Z" fill="#003B39"/>
<path d="M113.808 20.2235C113.68 20.0532 113.514 19.9306 113.313 19.8587C113.19 19.8148 113.053 19.7708 112.903 19.7261C112.839 19.7076 112.778 19.6665 112.716 19.6C112.678 19.5586 112.602 19.4536 112.53 19.2148C112.468 19.0086 112.437 18.699 112.437 18.2945V11.9305C112.437 10.9773 112.219 10.3113 111.77 9.89445C111.332 9.48681 110.637 9.28872 109.645 9.28872C109.313 9.28872 108.914 9.34319 108.458 9.45026C108.008 9.55632 107.564 9.70869 107.138 9.90334C106.698 10.1053 106.316 10.3534 106.001 10.6404C105.623 10.9851 105.432 11.3771 105.432 11.8057C105.432 12.3254 105.589 12.6626 105.898 12.8074C106.047 12.8779 106.223 12.9525 106.426 13.0319C106.542 13.0775 106.66 13.1743 106.777 13.3194C106.815 13.3674 106.944 13.5774 107.004 14.2704V17.1123C106.916 17.4262 106.785 17.7163 106.615 17.9746C106.432 18.2531 106.221 18.4939 105.989 18.6901C105.76 18.8832 105.52 19.0307 105.275 19.1287C105.038 19.2236 104.812 19.2716 104.604 19.2716C104.355 19.2716 104.166 19.1982 104.008 19.04C103.857 18.889 103.777 18.5968 103.777 18.1947V11.9305C103.777 10.9768 103.559 10.3107 103.11 9.89445C102.672 9.48681 101.977 9.28872 100.985 9.28872C100.648 9.28872 100.26 9.34147 99.7975 9.45026C99.347 9.55647 98.9036 9.70883 98.4786 9.90334C98.0388 10.105 97.6561 10.3531 97.3408 10.6404C96.9628 10.9851 96.7715 11.3771 96.7715 11.8057C96.7715 12.3251 96.929 12.6622 97.2388 12.8076C97.3878 12.8779 97.5637 12.9526 97.7655 13.0317C97.8822 13.0775 98.0006 13.1743 98.1165 13.3191C98.1548 13.3673 98.2839 13.5774 98.3437 14.2704V18.7686C98.3437 20.3447 98.7168 21.5356 99.4521 22.3078C100.194 23.0868 101.247 23.482 102.583 23.482C103.649 23.482 104.63 23.2507 105.498 22.7943C106.07 22.4937 106.604 22.1054 107.095 21.635C107.2 22.1601 107.396 22.5594 107.687 22.8432C108.143 23.2898 108.882 23.507 109.945 23.507C110.489 23.507 111.012 23.4234 111.498 23.2586C111.976 23.0962 112.4 22.8885 112.756 22.6418C113.115 22.3934 113.408 22.1284 113.626 21.853C113.884 21.5271 114.009 21.2367 114.009 20.9649C114.009 20.6469 113.944 20.4044 113.808 20.2235Z" fill="#003B39"/>
<path d="M127.149 9.67757C126.734 9.30347 126.188 9.11399 125.529 9.11399C125.256 9.11399 124.933 9.14552 124.568 9.20773C124.191 9.27237 123.823 9.38403 123.475 9.53983C123.114 9.70151 122.802 9.90662 122.55 10.1496C122.248 10.44 122.088 10.8141 122.088 11.2317C122.088 11.6693 122.217 12.0189 122.468 12.2699C122.659 12.4612 122.877 12.631 123.116 12.7743C123.295 12.8814 123.457 13.0043 123.599 13.1391C123.691 13.2269 123.711 13.4124 123.711 13.5527C123.711 13.6806 123.691 13.8233 123.65 13.9763C123.605 14.151 123.53 14.3692 123.43 14.6247C123.325 14.8899 123.193 15.2028 123.026 15.5803C122.954 15.741 122.875 15.9166 122.788 16.1066L120.487 11.6313C120.069 10.7969 119.554 10.1792 118.956 9.79582C118.352 9.40968 117.684 9.21389 116.969 9.21389C116.507 9.21389 116.048 9.28871 115.604 9.43649C115.166 9.58283 114.776 9.77418 114.443 10.0049C114.102 10.2422 113.822 10.5138 113.61 10.8119C113.374 11.1459 113.254 11.4886 113.254 11.8307C113.254 12.4545 113.57 12.7709 113.836 12.9261C114.118 13.0921 114.412 13.2063 114.709 13.2658C115.033 13.3306 115.276 13.4573 115.453 13.6522C115.666 13.8873 115.924 14.3072 116.218 14.8945L120.089 22.9113C120.229 23.19 120.427 23.4043 120.679 23.5481C120.921 23.6863 121.176 23.7563 121.436 23.7563C121.71 23.7563 121.974 23.6878 122.224 23.5521C122.487 23.4085 122.692 23.1928 122.83 22.9158L125.852 17.0465L126.464 15.8236C126.692 15.3673 126.908 14.8852 127.104 14.3907C127.302 13.8909 127.467 13.3862 127.595 12.8905C127.729 12.3741 127.796 11.8747 127.796 11.4063C127.796 10.6455 127.579 10.0639 127.149 9.67757Z" fill="#003B39"/>
<path d="M66.3705 30.2461C67.2427 30.2461 67.9412 29.8997 68.3906 29.2441C68.7981 28.6501 69.0048 27.9434 69.0048 27.1442C69.0048 25.4454 68.0693 24.5099 66.3705 24.5099C64.6719 24.5099 63.7363 25.4454 63.7363 27.1442C63.7363 27.9434 63.9429 28.6499 64.3502 29.2441C64.7996 29.8997 65.4982 30.2461 66.3705 30.2461Z" fill="#003B39"/>
<path d="M70.7673 41.6449C70.641 41.6171 70.4986 41.5741 70.3415 41.5168C70.2593 41.4871 70.1662 41.4108 70.0703 41.2955C70.0647 41.2887 69.9426 41.1335 69.8834 40.4524V33.8391C69.8834 32.8725 69.6431 32.1592 69.1694 31.7191C68.7017 31.2848 67.9735 31.0736 66.9433 31.0736C66.3644 31.0736 65.8173 31.1599 65.3171 31.3299C64.8313 31.4948 64.3986 31.7023 64.0311 31.9468C63.6553 32.1977 63.353 32.467 63.1319 32.7481C62.8618 33.0918 62.7305 33.416 62.7305 33.7392C62.7305 34.0908 62.806 34.3626 62.9615 34.5698C63.0993 34.7534 63.2769 34.8928 63.4894 34.9841C63.6371 35.0474 63.8005 35.1003 63.975 35.1412C63.9993 35.147 64.0398 35.1609 64.0939 35.211C64.1079 35.224 64.1641 35.2853 64.2231 35.4561C64.2528 35.5418 64.3027 35.7509 64.3027 36.1849V42.7986C64.3027 43.7627 64.5412 44.4785 65.0113 44.9261C65.4797 45.372 66.2016 45.5889 67.2178 45.5889C67.5674 45.5889 67.9639 45.5345 68.4295 45.4226C68.8908 45.3119 69.3397 45.1437 69.7635 44.9225C70.2037 44.693 70.5844 44.4092 70.8949 44.0791C71.267 43.6837 71.4556 43.2193 71.4556 42.6988C71.4556 41.8873 70.9743 41.6915 70.7673 41.6449Z" fill="#003B39"/>
<path d="M50.251 9.83631C50.0027 9.64998 49.6987 9.51467 49.3463 9.43383C49.0301 9.36188 48.6895 9.3163 48.3335 9.29852C47.9829 9.28118 47.6739 9.27287 47.3882 9.27287C47.1199 9.27287 46.8068 9.28118 46.4317 9.29838C46.0453 9.3163 45.6709 9.37134 45.3178 9.46164C44.9395 9.55896 44.6156 9.70487 44.3547 9.89536C44.0232 10.1379 43.848 10.4909 43.848 10.9165C43.848 11.2914 43.9852 11.6131 44.2448 11.8463C44.4082 11.9936 44.5717 12.1451 44.7348 12.2995C44.8513 12.4107 44.9369 12.5462 44.9967 12.7133C45.0123 12.757 45.0483 12.9347 44.8542 13.3931L43.6774 16.27L43.238 15.2807C42.9383 14.6066 42.117 12.3198 41.6265 10.9537C41.3941 10.3067 41.2712 9.96488 41.2335 9.872C40.9527 9.17569 40.2428 9.17024 39.8189 9.16709L38.5586 9.15505C38.0288 9.14587 37.4531 9.25294 37.1586 10.0536L36.9657 10.5781C36.6841 11.3435 36.4021 12.109 36.1277 12.8774C35.9916 13.2588 35.642 14.1408 35.3038 14.9934C35.1025 15.5016 34.9439 15.9015 34.82 16.2185L33.4791 13.2013C33.321 12.7193 33.3678 12.5531 33.3791 12.5237C33.4371 12.3727 33.5163 12.2538 33.6219 12.1595C33.7737 12.0237 33.9299 11.8916 34.0905 11.7631C34.2801 11.6109 34.5067 11.3231 34.5067 10.8166C34.5067 10.4938 34.3988 10.2017 34.1942 9.97104C34.0022 9.75561 33.7136 9.59422 33.3113 9.4774C32.9623 9.37678 32.5211 9.30626 31.9624 9.26183C31.426 9.2194 30.7634 9.19805 29.9933 9.19805C28.4053 9.19805 27.2787 9.30182 26.5485 9.51553C26.2163 9.61285 25.2051 9.90884 25.2051 10.7167C25.2051 11.0525 25.2753 11.3313 25.4139 11.5454C25.5376 11.7365 25.7046 11.9048 25.9103 12.0452C26.0829 12.1635 26.2834 12.282 26.5053 12.3971C26.6793 12.4878 26.8755 12.6303 27.0875 12.8202C27.3059 13.0162 27.5383 13.2766 27.7785 13.5934C28.0137 13.9047 28.2516 14.3394 28.4857 14.8859L31.6316 22.2015C31.8341 22.6621 32.0447 23.0165 32.2753 23.2854C32.5625 23.6207 32.9704 23.7905 33.487 23.7905C33.8171 23.7905 34.1041 23.7189 34.3404 23.5771C34.5415 23.4564 34.7204 23.3129 34.8728 23.1505C35.0289 22.9843 35.1559 22.7987 35.2499 22.5999C35.3276 22.4362 35.3924 22.2936 35.4431 22.1746L37.9749 16.3382L40.4665 22.2015C40.6689 22.6621 40.8796 23.0165 41.1102 23.2854C41.3973 23.6207 41.8052 23.7905 42.3218 23.7905C42.6519 23.7905 42.9389 23.7189 43.1752 23.5771C43.3754 23.4568 43.5545 23.3135 43.7075 23.1505C43.8636 22.9843 43.9906 22.7987 44.0847 22.5999C44.1623 22.4362 44.2271 22.2936 44.2776 22.1754L47.4491 14.9084C47.7931 14.0946 48.1433 13.4912 48.4896 13.1148C48.8446 12.7294 49.167 12.4437 49.4478 12.2664C49.7584 12.0703 50.0122 11.9149 50.2074 11.8007C50.5437 11.6053 50.7287 11.2646 50.7287 10.8415C50.7287 10.4181 50.5638 10.0705 50.251 9.83631Z" fill="#003B39"/>
<path d="M105.079 37.4262C104.681 37.1827 104.322 36.966 103.997 36.7697C102.279 35.7329 101.568 35.3034 101.194 34.5432C101.013 34.1748 101.031 33.9646 101.06 33.8386C101.142 33.4871 101.524 33.2367 101.843 33.1527C102.25 33.0455 102.741 33.1744 103.063 33.4734C103.432 33.8161 103.447 34.3021 103.463 34.8167C103.48 35.3662 103.499 35.989 104.042 36.3518C104.418 36.6026 104.962 36.6529 105.536 36.4901C106.24 36.2901 106.819 35.8222 107.086 35.2388C107.431 34.4831 107.235 33.7867 107.171 33.5571C107.079 33.2344 106.809 32.602 106.023 31.9909C104.469 30.7838 102.438 30.8481 101.459 30.8793C99.3758 30.9455 96.1393 32.0452 95.4678 34.2815C95.2328 35.0631 95.2516 35.7804 95.5232 36.4138C95.6448 36.6974 95.8637 37.0679 96.5651 37.6664C97.138 38.1556 97.5772 38.4073 98.1849 38.7555C98.328 38.8375 98.4826 38.9259 98.6529 39.0255L98.7144 39.0616C99.8384 39.7187 100.402 40.0486 101.001 40.6095C101.579 41.1503 102.024 41.6148 102.066 42.2557C102.118 43.0517 101.761 43.1991 101.627 43.2543C101.274 43.3992 100.801 43.3327 100.502 43.0975C100.231 42.8849 100.176 42.5929 100.103 42.0953C100.023 41.548 99.9226 40.8669 99.3207 40.2446C99.0613 39.9762 98.5076 39.5159 97.7139 39.4478C96.497 39.3463 95.6822 40.2486 95.5942 40.3516C95.4777 40.4888 94.8997 41.222 94.9827 42.1963C95.119 43.8038 96.9524 44.6592 97.7353 45.0244C98.9218 45.578 100.026 45.671 100.753 45.671C100.982 45.671 101.173 45.6618 101.318 45.6547C102.196 45.6125 103.526 45.4562 104.936 44.5903C105.89 44.0046 106.439 43.2088 106.464 43.1713C106.567 43.0165 106.66 42.8542 106.742 42.6891C107.115 41.9286 107.173 41.231 107.18 40.9658C107.189 40.6293 107.157 39.4537 106.364 38.453C105.996 37.9885 105.611 37.7527 105.079 37.4262Z" fill="#003B39"/>
<path d="M94.1634 42.049C93.9077 41.4989 93.4267 41.1837 92.8437 41.1837C92.5648 41.1837 92.2993 41.2516 92.0544 41.3856C91.9811 41.4216 91.9242 41.4444 91.8824 41.4589C91.8732 41.4312 91.8633 41.3964 91.8536 41.3532C91.7438 40.8715 91.6883 40.1825 91.6883 39.3044V34.112C92.2278 34.0528 92.9949 33.9505 93.2304 33.8282C94.0172 33.4199 94.4026 32.5871 94.147 31.8481C93.93 31.221 93.3138 30.8314 92.5388 30.8314C92.3866 30.8314 92.2376 30.8468 92.0949 30.8771C92.0426 30.8845 91.8256 30.8961 91.6883 30.9078V29.796C91.6883 29.1283 91.4211 28.7359 91.197 28.5242C90.8879 28.2338 90.4827 28.0813 90.0235 28.0813C89.5525 28.0813 89.0556 28.2458 88.5463 28.5703L85.1206 30.7956C84.7186 31.0638 84.4422 31.3739 84.2899 31.7235C84.1169 32.1227 84.0959 32.5329 84.2288 32.9112C84.3509 33.2615 84.5907 33.5611 84.9218 33.7756C85.0934 33.8877 85.2822 33.9694 85.4858 34.02C85.4956 34.132 85.5058 34.2809 85.5144 34.4771C85.5303 34.8534 85.5384 35.3781 85.5384 36.0353V41.3511C85.5384 42.1153 85.6537 42.7803 85.881 43.3275C86.1164 43.8944 86.4486 44.367 86.8687 44.7317C87.2754 45.0855 87.7436 45.3469 88.2601 45.5083C88.7441 45.6595 89.2449 45.7361 89.749 45.7361C90.2133 45.7361 90.6802 45.682 91.1369 45.5756C91.591 45.4695 92.0151 45.3211 92.3981 45.1344C92.7839 44.9465 93.1292 44.7274 93.4242 44.4834C93.7774 44.1905 94.0271 43.864 94.1671 43.5121C94.3787 43.0158 94.3775 42.5101 94.1634 42.049Z" fill="#003B39"/>
<path d="M55.1116 40.2031C55.1116 40.5624 55.0625 40.8799 54.9656 41.1467C54.8667 41.418 54.7428 41.6475 54.5975 41.8279C54.4719 41.9833 54.3351 42.0958 54.1792 42.1712C54.0259 42.2459 53.8717 42.2819 53.7068 42.2819C53.5281 42.2819 53.3488 42.2297 53.159 42.1225C52.9572 42.0087 52.7648 41.817 52.587 41.5524C52.3856 41.254 52.2169 40.8497 52.0849 40.35C51.9474 39.8291 51.8777 39.1834 51.8777 38.4311C51.8777 37.646 51.9517 36.9666 52.0978 36.4118C52.2382 35.877 52.421 35.4371 52.6411 35.1039C52.8417 34.7999 53.0582 34.5758 53.2848 34.4375C53.4852 34.3154 53.6723 34.2559 53.8565 34.2559C54.0351 34.2559 54.3118 34.3061 54.6538 34.7401C54.9575 35.1255 55.1116 35.7545 55.1116 36.6093V40.2031ZM60.9929 31.6113C60.6563 31.3391 60.2368 31.2009 59.7463 31.2009C59.3165 31.2009 58.8693 31.2978 58.417 31.4891C58.2806 31.5405 58.0676 31.6227 57.7771 31.7352C57.5787 31.8125 57.3825 31.8498 57.1759 31.8498C57.026 31.8498 56.8632 31.82 56.692 31.761C56.4207 31.668 56.1171 31.5668 55.78 31.457C55.4188 31.3398 55.0074 31.2311 54.5562 31.1337C54.0699 31.0292 53.499 30.9763 52.8583 30.9763C51.8429 30.9763 50.8877 31.1373 50.0191 31.4546C49.1216 31.7831 48.3335 32.2924 47.6768 32.9686C46.7524 33.9204 46.3454 35.009 46.1509 35.5448C45.5983 37.0675 45.6125 38.3582 45.6281 39.13C45.648 40.1078 45.6595 40.6719 45.891 41.3509C46.7324 43.8188 49.5628 45.1124 51.311 45.3754C51.71 45.4353 52.5503 45.5166 53.5676 45.4391C54.2043 45.3906 54.7328 45.2934 55.1116 45.2084V45.4191C55.1116 45.928 55.0913 46.496 55.0511 47.1076C55.0137 47.6735 54.924 48.2064 54.7845 48.6911C54.4778 49.7565 53.5659 50.2523 52.5667 49.7289C51.9228 49.3918 51.8459 48.6983 51.5861 48.0833C51.5717 48.0493 51.567 48.0384 51.5593 48.0202C51.3544 47.5425 50.6395 45.8744 49.3819 45.5372C47.8464 45.1256 46.2664 46.9029 45.9681 47.6994C45.7021 48.4101 45.7498 49.1326 45.7498 49.1326C45.7523 49.1697 45.7548 49.199 45.7567 49.2192C45.8027 49.7286 45.9845 50.2304 46.2963 50.7097C46.6075 51.1876 47.0863 51.6093 47.7195 51.9623C48.3123 52.2924 49.0515 52.5475 49.9796 52.7425C50.8682 52.9291 51.9626 53.0237 53.2325 53.0237C55.8792 53.0237 57.8953 52.4078 59.2244 51.193C60.5761 49.9568 61.2615 48.0143 61.2615 45.4191V36.734C61.2615 36.0398 61.2735 35.4868 61.2972 35.0902C61.3208 34.6967 61.3478 34.3941 61.377 34.1908C61.4143 33.9278 61.4411 33.8206 61.451 33.7866C61.4877 33.6579 61.5169 33.5352 61.5384 33.4193C61.5698 33.3029 61.5857 33.1842 61.5857 33.0654V32.9904C61.5857 32.2467 61.2634 31.8298 60.9929 31.6113Z" fill="#003B39"/>
<path d="M82.3496 30.9427C82.2548 30.9207 82.1693 30.9073 82.0858 30.9006C81.8329 30.88 81.598 30.9191 81.176 30.9558C81.1263 30.9601 81.0737 30.9701 81.0184 30.9837L79.5448 31.2456C79.5403 30.346 79.5935 30.0723 79.5072 29.6262C79.2965 28.5376 78.0481 27.4182 78.2575 26.7897C78.2731 26.7424 78.3826 26.414 78.6171 26.3645C78.7798 26.3303 78.9313 26.4451 78.9936 26.4935C79.605 26.9693 79.3576 28.3914 80.103 29.385C80.253 29.5847 80.7294 30.1487 81.4223 30.2173C82.4839 30.3224 83.6676 29.2258 83.7056 28.0754C83.7309 27.3121 83.2443 26.7508 82.9666 26.43C82.1993 25.5441 81.1911 25.3202 80.6867 25.2081C79.3528 24.9118 78.2602 25.2584 77.8918 25.3767C77.155 25.6133 76.4758 25.9861 75.8731 26.4851C75.2624 26.9908 74.7577 27.6382 74.3724 28.4096C74.0276 29.0993 73.8323 29.9072 73.7908 30.815L73.4518 30.7042C72.6954 30.4643 72.1814 30.6814 71.8824 30.9058C71.4835 31.2053 71.2485 31.6052 71.203 32.062C71.1572 32.5198 71.3161 32.9666 71.6619 33.3536C72.0155 33.7505 72.5421 33.9516 73.2272 33.9516H73.7825V40.3966C73.7825 40.9162 73.734 41.2139 73.693 41.3722C73.6208 41.6535 73.5513 41.8078 73.506 41.8871C73.4465 41.9909 73.3986 42.0306 73.3796 42.0436C73.2272 42.1485 73.0915 42.2507 72.9754 42.3473C72.8322 42.467 72.7045 42.601 72.5965 42.7451C72.4205 42.979 72.3349 43.272 72.3349 43.6411C72.3349 44.0036 72.4301 44.3329 72.6172 44.62C72.811 44.9177 73.1218 45.1525 73.5411 45.3175C73.8746 45.4494 74.2967 45.546 74.832 45.6132C75.3266 45.6751 75.9537 45.7064 76.696 45.7064C77.4375 45.7064 78.0647 45.6751 78.5606 45.6132C79.0953 45.546 79.5177 45.4494 79.8511 45.3178C80.2617 45.156 80.5722 44.9282 80.7734 44.641C80.9785 44.348 81.0827 44.0114 81.0827 43.6411C81.0827 43.2731 80.9974 42.9804 80.8216 42.7462C80.7128 42.6012 80.5849 42.4669 80.4407 42.3466C80.3262 42.251 80.19 42.1488 80.035 42.0419C80.0175 42.03 79.971 41.9914 79.9117 41.8877C79.8655 41.807 79.7956 41.6519 79.7236 41.3718C79.6834 41.215 79.6352 40.9186 79.6352 40.3966V33.9516H81.5233C81.6526 33.9578 82.545 33.9864 83.108 33.3308C83.3702 33.0257 83.4589 32.691 83.4824 32.5929C83.5286 32.3993 83.6203 32.0143 83.4403 31.6456C83.193 31.1394 82.5975 31.0005 82.3496 30.9427Z" fill="#003B39"/>
</g>
</g>
<defs>
<clipPath id="clip0_13_1958">
<rect width="153" height="55" fill="white"/>
</clipPath>
</defs>
</svg>
